G75*
%MOIN*%
%OFA0B0*%
%FSLAX25Y25*%
%IPPOS*%
%LPD*%
%AMOC8*
5,1,8,0,0,1.08239X$1,22.5*
%
%ADD10C,0.00800*%
%ADD11C,0.00300*%
%ADD12R,0.10748X0.00118*%
%ADD13R,0.11457X0.00118*%
%ADD14R,0.11929X0.00079*%
%ADD15R,0.12402X0.00157*%
%ADD16R,0.12638X0.00118*%
%ADD17R,0.12874X0.00118*%
%ADD18R,0.13110X0.00079*%
%ADD19R,0.04961X0.00118*%
%ADD20R,0.03071X0.00118*%
%ADD21R,0.05079X0.00118*%
%ADD22R,0.02244X0.00157*%
%ADD23R,0.00945X0.00157*%
%ADD24R,0.01181X0.00157*%
%ADD25R,0.00472X0.00157*%
%ADD26R,0.02835X0.00157*%
%ADD27R,0.02244X0.00118*%
%ADD28R,0.00591X0.00118*%
%ADD29R,0.00945X0.00118*%
%ADD30R,0.00354X0.00118*%
%ADD31R,0.02598X0.00118*%
%ADD32R,0.02362X0.00118*%
%ADD33R,0.00472X0.00118*%
%ADD34R,0.00827X0.00118*%
%ADD35R,0.02480X0.00118*%
%ADD36R,0.02480X0.00157*%
%ADD37R,0.00236X0.00157*%
%ADD38R,0.00709X0.00157*%
%ADD39R,0.00354X0.00157*%
%ADD40R,0.00709X0.00118*%
%ADD41R,0.00236X0.00118*%
%ADD42R,0.02598X0.00157*%
%ADD43R,0.00591X0.00157*%
%ADD44R,0.00118X0.00157*%
%ADD45R,0.02717X0.00118*%
%ADD46R,0.02835X0.00118*%
%ADD47R,0.00827X0.00157*%
%ADD48R,0.01299X0.00118*%
%ADD49R,0.01654X0.00118*%
%ADD50R,0.01063X0.00118*%
%ADD51R,0.01063X0.00157*%
%ADD52R,0.01181X0.00118*%
%ADD53R,0.02126X0.00118*%
%ADD54R,0.02126X0.00157*%
%ADD55R,0.01417X0.00118*%
%ADD56R,0.13110X0.00118*%
%ADD57R,0.12402X0.00118*%
%ADD58R,0.11929X0.00118*%
%ADD59R,0.12756X0.00157*%
%ADD60R,0.13701X0.00157*%
%ADD61R,0.14331X0.00157*%
%ADD62R,0.14961X0.00157*%
%ADD63R,0.15276X0.00157*%
%ADD64R,0.15591X0.00157*%
%ADD65R,0.15906X0.00157*%
%ADD66R,0.03780X0.00157*%
%ADD67R,0.07087X0.00157*%
%ADD68R,0.03465X0.00157*%
%ADD69R,0.01102X0.00157*%
%ADD70R,0.02362X0.00157*%
%ADD71R,0.03307X0.00157*%
%ADD72R,0.00787X0.00157*%
%ADD73R,0.00630X0.00157*%
%ADD74R,0.02047X0.00157*%
%ADD75R,0.03150X0.00157*%
%ADD76R,0.01890X0.00157*%
%ADD77R,0.00315X0.00157*%
%ADD78R,0.01732X0.00157*%
%ADD79R,0.01575X0.00157*%
%ADD80R,0.01417X0.00157*%
%ADD81R,0.01260X0.00157*%
%ADD82R,0.04409X0.00157*%
%ADD83R,0.03622X0.00157*%
%ADD84R,0.02205X0.00157*%
%ADD85R,0.05039X0.00157*%
%ADD86R,0.00157X0.00157*%
%ADD87R,0.02992X0.00157*%
%ADD88R,0.02520X0.00157*%
%ADD89R,0.14646X0.00157*%
%ADD90R,0.16220X0.00157*%
%ADD91R,0.16535X0.00157*%
%ADD92R,0.16850X0.00157*%
%ADD93R,0.04252X0.00157*%
%ADD94R,0.11969X0.00157*%
%ADD95R,0.04094X0.00157*%
%ADD96R,0.03937X0.00157*%
%ADD97R,0.12126X0.00157*%
%ADD98R,0.13071X0.00157*%
%ADD99R,0.04882X0.00157*%
%ADD100R,0.05197X0.00157*%
%ADD101R,0.02677X0.00157*%
%ADD102R,0.14016X0.00157*%
%ADD103R,0.04567X0.00157*%
%ADD104R,0.05354X0.00157*%
%ADD105R,0.00197X0.00079*%
%ADD106R,0.00315X0.00079*%
%ADD107R,0.00984X0.00079*%
%ADD108R,0.01102X0.00118*%
%ADD109R,0.01181X0.00079*%
%ADD110R,0.01142X0.00118*%
%ADD111R,0.01929X0.00118*%
%ADD112R,0.02047X0.00079*%
%ADD113R,0.02047X0.00118*%
%ADD114R,0.02992X0.00079*%
%ADD115R,0.00394X0.00118*%
%ADD116R,0.02992X0.00118*%
%ADD117R,0.04094X0.00079*%
%ADD118R,0.04055X0.00118*%
%ADD119R,0.00591X0.00079*%
%ADD120R,0.03976X0.00079*%
%ADD121R,0.05236X0.00079*%
%ADD122R,0.05276X0.00118*%
%ADD123R,0.00472X0.00079*%
%ADD124R,0.05276X0.00079*%
%ADD125R,0.06142X0.00118*%
%ADD126R,0.05906X0.00079*%
%ADD127R,0.05827X0.00118*%
%ADD128R,0.06811X0.00079*%
%ADD129R,0.06732X0.00118*%
%ADD130R,0.06614X0.00079*%
%ADD131R,0.06693X0.00118*%
%ADD132R,0.06299X0.00079*%
%ADD133R,0.06417X0.00118*%
%ADD134R,0.06732X0.00079*%
%ADD135R,0.06299X0.00118*%
%ADD136R,0.06417X0.00079*%
%ADD137R,0.06220X0.00118*%
%ADD138R,0.05866X0.00079*%
%ADD139R,0.05630X0.00118*%
%ADD140R,0.05433X0.00079*%
%ADD141R,0.05354X0.00118*%
%ADD142R,0.05039X0.00079*%
%ADD143R,0.04843X0.00118*%
%ADD144R,0.04764X0.00079*%
%ADD145R,0.04449X0.00118*%
%ADD146R,0.00787X0.00118*%
%ADD147R,0.04173X0.00079*%
%ADD148R,0.01260X0.00079*%
%ADD149R,0.04173X0.00118*%
%ADD150R,0.01732X0.00118*%
%ADD151R,0.03819X0.00079*%
%ADD152R,0.01929X0.00079*%
%ADD153R,0.03701X0.00118*%
%ADD154R,0.02323X0.00118*%
%ADD155R,0.03583X0.00079*%
%ADD156R,0.02520X0.00079*%
%ADD157R,0.03425X0.00118*%
%ADD158R,0.03425X0.00079*%
%ADD159R,0.02913X0.00079*%
%ADD160R,0.03228X0.00079*%
%ADD161R,0.03110X0.00079*%
%ADD162R,0.00276X0.00118*%
%ADD163R,0.03110X0.00118*%
%ADD164R,0.03307X0.00118*%
%ADD165R,0.00276X0.00079*%
%ADD166R,0.03031X0.00079*%
%ADD167R,0.03504X0.00079*%
%ADD168R,0.02913X0.00118*%
%ADD169R,0.03583X0.00118*%
%ADD170R,0.00394X0.00079*%
%ADD171R,0.02835X0.00079*%
%ADD172R,0.03701X0.00079*%
%ADD173R,0.03465X0.00118*%
%ADD174R,0.04094X0.00118*%
%ADD175R,0.02638X0.00079*%
%ADD176R,0.04291X0.00079*%
%ADD177R,0.02520X0.00118*%
%ADD178R,0.04370X0.00118*%
%ADD179R,0.05354X0.00079*%
%ADD180R,0.04961X0.00079*%
%ADD181R,0.02362X0.00079*%
%ADD182R,0.05945X0.00079*%
%ADD183R,0.05118X0.00079*%
%ADD184R,0.00669X0.00118*%
%ADD185R,0.06614X0.00118*%
%ADD186R,0.05433X0.00118*%
%ADD187R,0.00669X0.00079*%
%ADD188R,0.09331X0.00079*%
%ADD189R,0.05551X0.00079*%
%ADD190R,0.00748X0.00118*%
%ADD191R,0.09528X0.00118*%
%ADD192R,0.05669X0.00118*%
%ADD193R,0.00748X0.00079*%
%ADD194R,0.09724X0.00079*%
%ADD195R,0.06024X0.00079*%
%ADD196R,0.00866X0.00118*%
%ADD197R,0.09724X0.00118*%
%ADD198R,0.10000X0.00079*%
%ADD199R,0.01142X0.00079*%
%ADD200R,0.10039X0.00079*%
%ADD201R,0.10000X0.00118*%
%ADD202R,0.05157X0.00118*%
%ADD203R,0.10276X0.00079*%
%ADD204R,0.01260X0.00118*%
%ADD205R,0.10394X0.00118*%
%ADD206R,0.05236X0.00118*%
%ADD207R,0.05157X0.00079*%
%ADD208R,0.01339X0.00118*%
%ADD209R,0.05551X0.00118*%
%ADD210R,0.01457X0.00079*%
%ADD211R,0.05827X0.00079*%
%ADD212R,0.01575X0.00118*%
%ADD213R,0.02441X0.00118*%
%ADD214R,0.03504X0.00118*%
%ADD215R,0.05866X0.00118*%
%ADD216R,0.01772X0.00079*%
%ADD217R,0.02717X0.00079*%
%ADD218R,0.02323X0.00079*%
%ADD219R,0.03780X0.00079*%
%ADD220R,0.01850X0.00118*%
%ADD221R,0.02638X0.00118*%
%ADD222R,0.00315X0.00118*%
%ADD223R,0.06496X0.00118*%
%ADD224R,0.01969X0.00079*%
%ADD225R,0.02441X0.00079*%
%ADD226R,0.01850X0.00079*%
%ADD227R,0.03858X0.00079*%
%ADD228R,0.06693X0.00079*%
%ADD229R,0.02165X0.00118*%
%ADD230R,0.07205X0.00118*%
%ADD231R,0.04921X0.00079*%
%ADD232R,0.04409X0.00079*%
%ADD233R,0.00984X0.00118*%
%ADD234R,0.04488X0.00118*%
%ADD235R,0.02795X0.00079*%
%ADD236R,0.01378X0.00079*%
%ADD237R,0.00866X0.00079*%
%ADD238R,0.04685X0.00079*%
%ADD239R,0.00906X0.00118*%
%ADD240R,0.04567X0.00118*%
%ADD241R,0.00945X0.00079*%
%ADD242R,0.00787X0.00079*%
%ADD243R,0.04449X0.00079*%
%ADD244R,0.01811X0.00079*%
%ADD245R,0.04882X0.00079*%
%ADD246R,0.00906X0.00079*%
%ADD247R,0.04370X0.00079*%
%ADD248R,0.05039X0.00118*%
%ADD249R,0.01535X0.00079*%
%ADD250R,0.04055X0.00079*%
%ADD251R,0.03228X0.00118*%
%ADD252R,0.03780X0.00118*%
%ADD253R,0.03386X0.00079*%
%ADD254R,0.01969X0.00118*%
%ADD255R,0.03189X0.00118*%
%ADD256R,0.03622X0.00079*%
%ADD257R,0.01457X0.00118*%
%ADD258R,0.08937X0.00079*%
%ADD259R,0.09134X0.00118*%
%ADD260R,0.01535X0.00118*%
%ADD261R,0.09252X0.00079*%
%ADD262R,0.02126X0.00079*%
%ADD263R,0.01654X0.00079*%
%ADD264R,0.09843X0.00118*%
%ADD265R,0.02008X0.00118*%
%ADD266R,0.09921X0.00079*%
%ADD267R,0.00079X0.00079*%
%ADD268R,0.10512X0.00118*%
%ADD269R,0.03031X0.00118*%
%ADD270R,0.04685X0.00118*%
%ADD271R,0.14488X0.00079*%
%ADD272R,0.06142X0.00079*%
%ADD273R,0.00709X0.00079*%
%ADD274R,0.01496X0.00079*%
%ADD275R,0.14685X0.00079*%
%ADD276R,0.01496X0.00118*%
%ADD277R,0.16811X0.00118*%
%ADD278R,0.04646X0.00079*%
%ADD279R,0.16890X0.00079*%
%ADD280R,0.00512X0.00118*%
%ADD281R,0.17008X0.00118*%
%ADD282R,0.01299X0.00079*%
%ADD283R,0.17205X0.00079*%
%ADD284R,0.17323X0.00118*%
%ADD285R,0.17402X0.00079*%
%ADD286R,0.03622X0.00118*%
%ADD287R,0.17402X0.00118*%
%ADD288R,0.01378X0.00118*%
%ADD289R,0.03386X0.00118*%
%ADD290R,0.02008X0.00079*%
%ADD291R,0.03150X0.00079*%
%ADD292R,0.02205X0.00079*%
%ADD293R,0.03150X0.00118*%
%ADD294R,0.02953X0.00118*%
%ADD295R,0.02756X0.00079*%
%ADD296R,0.02559X0.00079*%
%ADD297R,0.00197X0.00118*%
%ADD298C,0.01500*%
D10*
X0200873Y0247857D02*
X0200873Y0254943D01*
X0200873Y0258369D02*
X0205794Y0258369D01*
X0205794Y0254943D02*
X0205794Y0247857D01*
X0197083Y0267025D02*
X0197083Y0270775D01*
X0198707Y0287857D02*
X0207959Y0287857D01*
X0207959Y0294943D02*
X0198707Y0294943D01*
X0168845Y0284156D02*
X0168845Y0281006D01*
X0168845Y0284156D02*
X0166483Y0284156D01*
X0160184Y0284156D02*
X0157822Y0284156D01*
X0157822Y0281006D01*
X0159790Y0271861D02*
X0166877Y0271861D01*
X0170302Y0271861D02*
X0170302Y0266939D01*
X0166877Y0266939D02*
X0159790Y0266939D01*
X0240873Y0258369D02*
X0245794Y0258369D01*
X0245794Y0254943D02*
X0245794Y0247857D01*
X0240873Y0247857D02*
X0240873Y0254943D01*
D11*
X0224849Y0278794D02*
X0224495Y0279148D01*
X0223904Y0279620D01*
X0223550Y0279975D01*
X0223353Y0280132D01*
X0223353Y0287416D01*
X0223510Y0287455D01*
X0223707Y0287494D01*
X0223904Y0287494D01*
X0224062Y0287534D01*
X0224259Y0287573D01*
X0224416Y0287613D01*
X0224810Y0287691D01*
X0224810Y0286983D01*
X0224967Y0287180D01*
X0225125Y0287337D01*
X0225322Y0287494D01*
X0225715Y0287731D01*
X0226188Y0287809D01*
X0226463Y0287809D01*
X0227054Y0287770D01*
X0227605Y0287573D01*
X0228038Y0287298D01*
X0228392Y0286904D01*
X0228668Y0286471D01*
X0228825Y0285959D01*
X0228944Y0285408D01*
X0228983Y0284817D01*
X0227448Y0284857D01*
X0227448Y0285211D01*
X0227408Y0285526D01*
X0227290Y0285841D01*
X0227172Y0286117D01*
X0226975Y0286353D01*
X0226739Y0286510D01*
X0226463Y0286628D01*
X0226109Y0286668D01*
X0225794Y0286628D01*
X0225479Y0286510D01*
X0225282Y0286353D01*
X0225085Y0286117D01*
X0224967Y0285841D01*
X0224849Y0285526D01*
X0224810Y0285211D01*
X0224810Y0284542D01*
X0224967Y0283912D01*
X0225085Y0283636D01*
X0225282Y0283439D01*
X0225518Y0283243D01*
X0225794Y0283164D01*
X0226148Y0283124D01*
X0226463Y0283164D01*
X0226778Y0283243D01*
X0227014Y0283439D01*
X0227172Y0283636D01*
X0227290Y0283912D01*
X0228629Y0283282D01*
X0228392Y0282849D01*
X0228038Y0282494D01*
X0227605Y0282180D01*
X0227133Y0282022D01*
X0226542Y0281943D01*
X0225833Y0282061D01*
X0225597Y0282180D01*
X0225203Y0282416D01*
X0224888Y0282809D01*
X0224849Y0282809D01*
X0224849Y0278794D01*
X0224849Y0279012D02*
X0224630Y0279012D01*
X0224849Y0279311D02*
X0224291Y0279311D01*
X0223918Y0279609D02*
X0224849Y0279609D01*
X0224849Y0279908D02*
X0223617Y0279908D01*
X0223353Y0280206D02*
X0224849Y0280206D01*
X0224849Y0280505D02*
X0223353Y0280505D01*
X0223353Y0280803D02*
X0224849Y0280803D01*
X0224849Y0281102D02*
X0223353Y0281102D01*
X0223353Y0281401D02*
X0224849Y0281401D01*
X0224849Y0281699D02*
X0223353Y0281699D01*
X0223353Y0281998D02*
X0224849Y0281998D01*
X0224849Y0282296D02*
X0223353Y0282296D01*
X0223353Y0282595D02*
X0224849Y0282595D01*
X0225060Y0282595D02*
X0228138Y0282595D01*
X0228417Y0282893D02*
X0223353Y0282893D01*
X0223353Y0283192D02*
X0225697Y0283192D01*
X0225231Y0283490D02*
X0223353Y0283490D01*
X0223353Y0283789D02*
X0225020Y0283789D01*
X0224923Y0284087D02*
X0223353Y0284087D01*
X0223353Y0284386D02*
X0224849Y0284386D01*
X0224810Y0284684D02*
X0223353Y0284684D01*
X0223353Y0284983D02*
X0224810Y0284983D01*
X0224818Y0285281D02*
X0223353Y0285281D01*
X0223353Y0285580D02*
X0224869Y0285580D01*
X0224983Y0285878D02*
X0223353Y0285878D01*
X0223353Y0286177D02*
X0225135Y0286177D01*
X0225435Y0286475D02*
X0223353Y0286475D01*
X0223353Y0286774D02*
X0228475Y0286774D01*
X0228665Y0286475D02*
X0226791Y0286475D01*
X0227122Y0286177D02*
X0228758Y0286177D01*
X0228843Y0285878D02*
X0227274Y0285878D01*
X0227388Y0285580D02*
X0228907Y0285580D01*
X0228952Y0285281D02*
X0227439Y0285281D01*
X0227448Y0284983D02*
X0228972Y0284983D01*
X0228983Y0284817D02*
X0228944Y0284266D01*
X0228825Y0283754D01*
X0228629Y0283282D01*
X0227290Y0283912D01*
X0227408Y0284227D01*
X0227448Y0284542D01*
X0227448Y0284857D01*
X0228983Y0284817D01*
X0228973Y0284684D02*
X0227448Y0284684D01*
X0227428Y0284386D02*
X0228952Y0284386D01*
X0228902Y0284087D02*
X0227356Y0284087D01*
X0227237Y0283789D02*
X0227552Y0283789D01*
X0228833Y0283789D01*
X0228715Y0283490D02*
X0228186Y0283490D01*
X0227055Y0283490D01*
X0226574Y0283192D02*
X0228579Y0283192D01*
X0229455Y0283203D02*
X0229455Y0283400D01*
X0229416Y0283597D01*
X0229495Y0284030D01*
X0229613Y0284384D01*
X0229770Y0284660D01*
X0230046Y0284896D01*
X0230322Y0285054D01*
X0230636Y0285172D01*
X0230951Y0285250D01*
X0231306Y0285290D01*
X0231621Y0284463D01*
X0231503Y0284424D01*
X0231424Y0284384D01*
X0231385Y0284345D01*
X0231227Y0284266D01*
X0231188Y0284227D01*
X0231109Y0284187D01*
X0230991Y0283951D01*
X0230991Y0283872D01*
X0230951Y0283794D01*
X0230951Y0283597D01*
X0230991Y0283479D01*
X0230991Y0283400D01*
X0231030Y0283321D01*
X0231070Y0283282D01*
X0231109Y0283203D01*
X0231188Y0283164D01*
X0231227Y0283124D01*
X0231385Y0283046D01*
X0231463Y0283046D01*
X0231542Y0283006D01*
X0231621Y0283006D01*
X0231699Y0282967D01*
X0231896Y0282967D01*
X0232093Y0283006D01*
X0232290Y0283006D01*
X0232448Y0283085D01*
X0232605Y0283124D01*
X0232723Y0283203D01*
X0232802Y0283282D01*
X0232881Y0283400D01*
X0232959Y0283479D01*
X0233038Y0283715D01*
X0233077Y0283794D01*
X0233117Y0283912D01*
X0233117Y0284817D01*
X0233038Y0284739D01*
X0232959Y0284739D01*
X0232802Y0284660D01*
X0232723Y0284660D01*
X0232644Y0284620D01*
X0232487Y0284620D01*
X0232290Y0285408D01*
X0232566Y0285487D01*
X0232802Y0285565D01*
X0232999Y0285683D01*
X0233117Y0285841D01*
X0233117Y0286274D01*
X0232999Y0286510D01*
X0232959Y0286550D01*
X0232920Y0286628D01*
X0232684Y0286746D01*
X0232605Y0286746D01*
X0232526Y0286786D01*
X0231818Y0286786D01*
X0231424Y0286589D01*
X0231266Y0286431D01*
X0231227Y0286353D01*
X0231188Y0286235D01*
X0231148Y0286156D01*
X0231148Y0285959D01*
X0229613Y0285959D01*
X0229692Y0286431D01*
X0229770Y0286668D01*
X0229888Y0286825D01*
X0230007Y0287022D01*
X0230125Y0287180D01*
X0230282Y0287298D01*
X0230676Y0287534D01*
X0230873Y0287613D01*
X0231070Y0287652D01*
X0231306Y0287731D01*
X0231542Y0287770D01*
X0231739Y0287809D01*
X0232644Y0287809D01*
X0232841Y0287770D01*
X0233077Y0287770D01*
X0233274Y0287731D01*
X0233471Y0287652D01*
X0233668Y0287613D01*
X0233865Y0287534D01*
X0234337Y0287180D01*
X0234455Y0287022D01*
X0234534Y0286865D01*
X0234613Y0286668D01*
X0234652Y0286471D01*
X0234652Y0283046D01*
X0234692Y0282967D01*
X0234692Y0282613D01*
X0234731Y0282534D01*
X0234731Y0282455D01*
X0234770Y0282376D01*
X0234770Y0282258D01*
X0234810Y0282180D01*
X0234849Y0282140D01*
X0234849Y0282101D01*
X0233314Y0282101D01*
X0233314Y0282140D01*
X0233274Y0282180D01*
X0233274Y0282219D01*
X0233235Y0282258D01*
X0233235Y0282376D01*
X0233196Y0282416D01*
X0233196Y0282652D01*
X0233117Y0282534D01*
X0232999Y0282455D01*
X0232920Y0282376D01*
X0232802Y0282298D01*
X0232684Y0282258D01*
X0232566Y0282180D01*
X0232093Y0282022D01*
X0231975Y0282022D01*
X0231857Y0281983D01*
X0231699Y0281983D01*
X0231581Y0281943D01*
X0231148Y0281943D01*
X0230951Y0281983D01*
X0230755Y0281983D01*
X0230597Y0282022D01*
X0230400Y0282101D01*
X0230243Y0282180D01*
X0230125Y0282258D01*
X0229967Y0282337D01*
X0229849Y0282455D01*
X0229770Y0282573D01*
X0229652Y0282731D01*
X0229573Y0282849D01*
X0229534Y0283046D01*
X0229455Y0283203D01*
X0229461Y0283192D02*
X0231132Y0283192D01*
X0230987Y0283490D02*
X0229437Y0283490D01*
X0229451Y0283789D02*
X0230951Y0283789D01*
X0231059Y0284087D02*
X0229514Y0284087D01*
X0229614Y0284386D02*
X0231427Y0284386D01*
X0231621Y0284463D02*
X0231306Y0285290D01*
X0232014Y0285369D01*
X0232290Y0285408D01*
X0232487Y0284620D01*
X0232408Y0284581D01*
X0232329Y0284581D01*
X0232211Y0284542D01*
X0232054Y0284542D01*
X0231936Y0284502D01*
X0231778Y0284502D01*
X0231699Y0284463D01*
X0231621Y0284463D01*
X0231536Y0284684D02*
X0232471Y0284684D01*
X0232850Y0284684D01*
X0233117Y0284684D02*
X0234652Y0284684D01*
X0234652Y0284386D02*
X0233117Y0284386D01*
X0233117Y0284087D02*
X0234652Y0284087D01*
X0234652Y0283789D02*
X0233075Y0283789D01*
X0232963Y0283490D02*
X0234652Y0283490D01*
X0234652Y0283192D02*
X0232706Y0283192D01*
X0233157Y0282595D02*
X0229754Y0282595D01*
X0229565Y0282893D02*
X0234692Y0282893D01*
X0234701Y0282595D02*
X0233196Y0282595D01*
X0233235Y0282296D02*
X0234770Y0282296D01*
X0235518Y0282296D02*
X0237054Y0282296D01*
X0237054Y0282101D02*
X0235518Y0282101D01*
X0235518Y0287416D01*
X0235715Y0287455D01*
X0235873Y0287494D01*
X0236070Y0287494D01*
X0236266Y0287534D01*
X0236424Y0287573D01*
X0236818Y0287652D01*
X0236975Y0287691D01*
X0236975Y0286628D01*
X0237133Y0286904D01*
X0237290Y0287101D01*
X0237487Y0287337D01*
X0237684Y0287494D01*
X0237959Y0287652D01*
X0238196Y0287731D01*
X0238471Y0287809D01*
X0239022Y0287809D01*
X0239062Y0287770D01*
X0239101Y0287770D01*
X0239101Y0286353D01*
X0239062Y0286353D01*
X0238983Y0286392D01*
X0238550Y0286392D01*
X0238156Y0286353D01*
X0237841Y0286274D01*
X0237566Y0286117D01*
X0237369Y0285880D01*
X0237211Y0285605D01*
X0237133Y0285329D01*
X0237054Y0284975D01*
X0237054Y0282101D01*
X0237054Y0282595D02*
X0235518Y0282595D01*
X0235518Y0282893D02*
X0237054Y0282893D01*
X0237054Y0283192D02*
X0235518Y0283192D01*
X0235518Y0283490D02*
X0237054Y0283490D01*
X0237054Y0283789D02*
X0235518Y0283789D01*
X0235518Y0284087D02*
X0237054Y0284087D01*
X0237054Y0284386D02*
X0235518Y0284386D01*
X0235518Y0284684D02*
X0237054Y0284684D01*
X0237056Y0284983D02*
X0235518Y0284983D01*
X0235518Y0285281D02*
X0237122Y0285281D01*
X0237204Y0285580D02*
X0235518Y0285580D01*
X0235518Y0285878D02*
X0237368Y0285878D01*
X0237671Y0286177D02*
X0235518Y0286177D01*
X0235518Y0286475D02*
X0239101Y0286475D01*
X0239101Y0286774D02*
X0237058Y0286774D01*
X0236975Y0286774D02*
X0235518Y0286774D01*
X0235518Y0287072D02*
X0236975Y0287072D01*
X0237267Y0287072D02*
X0239101Y0287072D01*
X0239101Y0287371D02*
X0237529Y0287371D01*
X0236975Y0287371D02*
X0235518Y0287371D01*
X0234570Y0286774D02*
X0232550Y0286774D01*
X0233016Y0286475D02*
X0234651Y0286475D01*
X0234652Y0286177D02*
X0233117Y0286177D01*
X0233117Y0285878D02*
X0234652Y0285878D01*
X0234652Y0285580D02*
X0232826Y0285580D01*
X0232322Y0285281D02*
X0234652Y0285281D01*
X0234652Y0284983D02*
X0232396Y0284983D01*
X0231423Y0284983D01*
X0230197Y0284983D01*
X0229799Y0284684D02*
X0231536Y0284684D01*
X0231309Y0285281D02*
X0232322Y0285281D01*
X0231309Y0285281D02*
X0231228Y0285281D01*
X0231159Y0286177D02*
X0229649Y0286177D01*
X0229706Y0286475D02*
X0231310Y0286475D01*
X0231793Y0286774D02*
X0229850Y0286774D01*
X0230044Y0287072D02*
X0234418Y0287072D01*
X0234082Y0287371D02*
X0230404Y0287371D01*
X0231121Y0287669D02*
X0233428Y0287669D01*
X0236887Y0287669D02*
X0236975Y0287669D01*
X0238011Y0287669D02*
X0239101Y0287669D01*
X0239692Y0287669D02*
X0241227Y0287669D01*
X0241227Y0287371D02*
X0239692Y0287371D01*
X0239692Y0287072D02*
X0241227Y0287072D01*
X0241227Y0286774D02*
X0239692Y0286774D01*
X0239692Y0286475D02*
X0241227Y0286475D01*
X0241227Y0286177D02*
X0239692Y0286177D01*
X0239692Y0285878D02*
X0241227Y0285878D01*
X0241414Y0285878D02*
X0243119Y0285878D01*
X0242881Y0285644D02*
X0245203Y0282101D01*
X0243353Y0282101D01*
X0241818Y0284581D01*
X0241227Y0284030D01*
X0241227Y0282101D01*
X0239692Y0282101D01*
X0239692Y0288951D01*
X0241227Y0289778D01*
X0241227Y0285683D01*
X0243156Y0287691D01*
X0244967Y0287691D01*
X0242881Y0285644D01*
X0242923Y0285580D02*
X0239692Y0285580D01*
X0239692Y0285281D02*
X0243118Y0285281D01*
X0243314Y0284983D02*
X0239692Y0284983D01*
X0239692Y0284684D02*
X0243510Y0284684D01*
X0243706Y0284386D02*
X0241939Y0284386D01*
X0241608Y0284386D02*
X0239692Y0284386D01*
X0239692Y0284087D02*
X0241288Y0284087D01*
X0241227Y0283789D02*
X0239692Y0283789D01*
X0239692Y0283490D02*
X0241227Y0283490D01*
X0241227Y0283192D02*
X0239692Y0283192D01*
X0239692Y0282893D02*
X0241227Y0282893D01*
X0241227Y0282595D02*
X0239692Y0282595D01*
X0239692Y0282296D02*
X0241227Y0282296D01*
X0242678Y0283192D02*
X0244488Y0283192D01*
X0244293Y0283490D02*
X0242493Y0283490D01*
X0242308Y0283789D02*
X0244097Y0283789D01*
X0243901Y0284087D02*
X0242123Y0284087D01*
X0242863Y0282893D02*
X0244684Y0282893D01*
X0244880Y0282595D02*
X0243047Y0282595D01*
X0243232Y0282296D02*
X0245075Y0282296D01*
X0246148Y0282296D02*
X0247644Y0282296D01*
X0247644Y0282101D02*
X0246148Y0282101D01*
X0246148Y0286668D01*
X0244613Y0286668D01*
X0244770Y0286786D01*
X0245400Y0287416D01*
X0245558Y0287534D01*
X0245676Y0287691D01*
X0246148Y0287691D01*
X0246148Y0288479D01*
X0246266Y0288794D01*
X0246385Y0289069D01*
X0246581Y0289306D01*
X0246857Y0289502D01*
X0247172Y0289660D01*
X0247566Y0289778D01*
X0248707Y0289778D01*
X0248786Y0289739D01*
X0248786Y0288636D01*
X0248117Y0288636D01*
X0247959Y0288597D01*
X0247802Y0288518D01*
X0247723Y0288400D01*
X0247684Y0288321D01*
X0247684Y0288164D01*
X0247644Y0288006D01*
X0247644Y0287691D01*
X0248707Y0287691D01*
X0248707Y0286668D01*
X0247644Y0286668D01*
X0247644Y0282101D01*
X0247644Y0282595D02*
X0246148Y0282595D01*
X0246148Y0282893D02*
X0247644Y0282893D01*
X0247644Y0283192D02*
X0246148Y0283192D01*
X0246148Y0283490D02*
X0247644Y0283490D01*
X0247644Y0283789D02*
X0246148Y0283789D01*
X0246148Y0284087D02*
X0247644Y0284087D01*
X0247644Y0284386D02*
X0246148Y0284386D01*
X0246148Y0284684D02*
X0247644Y0284684D01*
X0247644Y0284983D02*
X0246148Y0284983D01*
X0246148Y0285281D02*
X0247644Y0285281D01*
X0247644Y0285580D02*
X0246148Y0285580D01*
X0246148Y0285878D02*
X0247644Y0285878D01*
X0247644Y0286177D02*
X0246148Y0286177D01*
X0246148Y0286475D02*
X0247644Y0286475D01*
X0248707Y0286774D02*
X0244754Y0286774D01*
X0245057Y0287072D02*
X0248707Y0287072D01*
X0248707Y0287371D02*
X0245355Y0287371D01*
X0245659Y0287669D02*
X0248707Y0287669D01*
X0249180Y0287669D02*
X0250676Y0287669D01*
X0250676Y0287691D02*
X0250676Y0284542D01*
X0250755Y0283912D01*
X0250794Y0283676D01*
X0251030Y0283361D01*
X0251227Y0283243D01*
X0251424Y0283203D01*
X0251660Y0283164D01*
X0251975Y0283203D01*
X0252211Y0283243D01*
X0252408Y0283361D01*
X0252566Y0283518D01*
X0252684Y0283754D01*
X0252802Y0284030D01*
X0252841Y0284345D01*
X0252841Y0287691D01*
X0254377Y0287691D01*
X0254377Y0282101D01*
X0252920Y0282101D01*
X0252920Y0282888D01*
X0252881Y0282888D01*
X0252723Y0282652D01*
X0252566Y0282455D01*
X0252369Y0282298D01*
X0252133Y0282180D01*
X0251936Y0282101D01*
X0251699Y0282022D01*
X0251424Y0281983D01*
X0251188Y0281943D01*
X0250636Y0281983D01*
X0250203Y0282140D01*
X0249849Y0282337D01*
X0249573Y0282573D01*
X0249377Y0282928D01*
X0249259Y0283321D01*
X0249180Y0283754D01*
X0249180Y0287691D01*
X0250676Y0287691D01*
X0250676Y0287371D02*
X0249180Y0287371D01*
X0249180Y0287072D02*
X0250676Y0287072D01*
X0250676Y0286774D02*
X0249180Y0286774D01*
X0249180Y0286475D02*
X0250676Y0286475D01*
X0250676Y0286177D02*
X0249180Y0286177D01*
X0249180Y0285878D02*
X0250676Y0285878D01*
X0250676Y0285580D02*
X0249180Y0285580D01*
X0249180Y0285281D02*
X0250676Y0285281D01*
X0250676Y0284983D02*
X0249180Y0284983D01*
X0249180Y0284684D02*
X0250676Y0284684D01*
X0250695Y0284386D02*
X0249180Y0284386D01*
X0249180Y0284087D02*
X0250733Y0284087D01*
X0250775Y0283789D02*
X0249180Y0283789D01*
X0249228Y0283490D02*
X0250933Y0283490D01*
X0251493Y0283192D02*
X0249297Y0283192D01*
X0249396Y0282893D02*
X0254377Y0282893D01*
X0254377Y0282595D02*
X0252920Y0282595D01*
X0252677Y0282595D02*
X0249562Y0282595D01*
X0249923Y0282296D02*
X0252366Y0282296D01*
X0252920Y0282296D02*
X0254377Y0282296D01*
X0255203Y0282296D02*
X0256739Y0282296D01*
X0256739Y0282101D02*
X0255203Y0282101D01*
X0255203Y0287691D01*
X0256660Y0287691D01*
X0256660Y0286904D01*
X0256699Y0286904D01*
X0256857Y0287140D01*
X0257014Y0287298D01*
X0257211Y0287455D01*
X0257448Y0287613D01*
X0257920Y0287770D01*
X0258156Y0287809D01*
X0258392Y0287809D01*
X0258944Y0287770D01*
X0259377Y0287652D01*
X0259731Y0287455D01*
X0260007Y0287180D01*
X0260203Y0286865D01*
X0260322Y0286471D01*
X0260400Y0286038D01*
X0260440Y0285526D01*
X0260440Y0282101D01*
X0258904Y0282101D01*
X0258904Y0285250D01*
X0258865Y0285565D01*
X0258825Y0285841D01*
X0258786Y0286077D01*
X0258668Y0286274D01*
X0258550Y0286431D01*
X0258353Y0286550D01*
X0258156Y0286589D01*
X0257920Y0286628D01*
X0257605Y0286589D01*
X0257369Y0286550D01*
X0257172Y0286431D01*
X0257014Y0286235D01*
X0256896Y0286038D01*
X0256778Y0285762D01*
X0256739Y0285408D01*
X0256739Y0282101D01*
X0256739Y0282595D02*
X0255203Y0282595D01*
X0255203Y0282893D02*
X0256739Y0282893D01*
X0256739Y0283192D02*
X0255203Y0283192D01*
X0255203Y0283490D02*
X0256739Y0283490D01*
X0256739Y0283789D02*
X0255203Y0283789D01*
X0255203Y0284087D02*
X0256739Y0284087D01*
X0256739Y0284386D02*
X0255203Y0284386D01*
X0255203Y0284684D02*
X0256739Y0284684D01*
X0256739Y0284983D02*
X0255203Y0284983D01*
X0255203Y0285281D02*
X0256739Y0285281D01*
X0256758Y0285580D02*
X0255203Y0285580D01*
X0255203Y0285878D02*
X0256828Y0285878D01*
X0256980Y0286177D02*
X0255203Y0286177D01*
X0255203Y0286475D02*
X0257245Y0286475D01*
X0256812Y0287072D02*
X0260074Y0287072D01*
X0260231Y0286774D02*
X0255203Y0286774D01*
X0255203Y0287072D02*
X0256660Y0287072D01*
X0256660Y0287371D02*
X0255203Y0287371D01*
X0255203Y0287669D02*
X0256660Y0287669D01*
X0257106Y0287371D02*
X0259815Y0287371D01*
X0259313Y0287669D02*
X0257617Y0287669D01*
X0258477Y0286475D02*
X0260320Y0286475D01*
X0260375Y0286177D02*
X0258726Y0286177D01*
X0258819Y0285878D02*
X0260413Y0285878D01*
X0260435Y0285580D02*
X0258863Y0285580D01*
X0258900Y0285281D02*
X0260440Y0285281D01*
X0260440Y0284983D02*
X0258904Y0284983D01*
X0258904Y0284684D02*
X0260440Y0284684D01*
X0260440Y0284386D02*
X0258904Y0284386D01*
X0258904Y0284087D02*
X0260440Y0284087D01*
X0260440Y0283789D02*
X0258904Y0283789D01*
X0258904Y0283490D02*
X0260440Y0283490D01*
X0260440Y0283192D02*
X0258904Y0283192D01*
X0258904Y0282893D02*
X0260440Y0282893D01*
X0260440Y0282595D02*
X0258904Y0282595D01*
X0258904Y0282296D02*
X0260440Y0282296D01*
X0254377Y0283192D02*
X0251883Y0283192D01*
X0252538Y0283490D02*
X0254377Y0283490D01*
X0254377Y0283789D02*
X0252698Y0283789D01*
X0252809Y0284087D02*
X0254377Y0284087D01*
X0254377Y0284386D02*
X0252841Y0284386D01*
X0252841Y0284684D02*
X0254377Y0284684D01*
X0254377Y0284983D02*
X0252841Y0284983D01*
X0252841Y0285281D02*
X0254377Y0285281D01*
X0254377Y0285580D02*
X0252841Y0285580D01*
X0252841Y0285878D02*
X0254377Y0285878D01*
X0254377Y0286177D02*
X0252841Y0286177D01*
X0252841Y0286475D02*
X0254377Y0286475D01*
X0254377Y0286774D02*
X0252841Y0286774D01*
X0252841Y0287072D02*
X0254377Y0287072D01*
X0254377Y0287371D02*
X0252841Y0287371D01*
X0252841Y0287669D02*
X0254377Y0287669D01*
X0248786Y0288863D02*
X0246296Y0288863D01*
X0246181Y0288565D02*
X0247895Y0288565D01*
X0247684Y0288266D02*
X0246148Y0288266D01*
X0246148Y0287968D02*
X0247644Y0287968D01*
X0248786Y0289162D02*
X0246462Y0289162D01*
X0246798Y0289460D02*
X0248786Y0289460D01*
X0248746Y0289759D02*
X0247502Y0289759D01*
X0247068Y0291550D02*
X0242841Y0291550D01*
X0242841Y0291848D02*
X0247775Y0291848D01*
X0247605Y0291746D02*
X0247999Y0291983D01*
X0248314Y0292258D01*
X0248629Y0292573D01*
X0248904Y0292928D01*
X0249298Y0293636D01*
X0249495Y0294345D01*
X0249534Y0295054D01*
X0249416Y0295683D01*
X0249219Y0296235D01*
X0248944Y0296707D01*
X0248629Y0297061D01*
X0248314Y0297219D01*
X0248314Y0296904D01*
X0248235Y0296668D01*
X0248117Y0296589D01*
X0247999Y0296550D01*
X0247723Y0296550D01*
X0247408Y0296707D01*
X0247290Y0296786D01*
X0247133Y0296904D01*
X0247014Y0296983D01*
X0246896Y0297101D01*
X0246818Y0297258D01*
X0246739Y0297376D01*
X0246699Y0297534D01*
X0246660Y0297652D01*
X0246699Y0297770D01*
X0246739Y0297849D01*
X0246778Y0297967D01*
X0246857Y0298085D01*
X0247014Y0298203D01*
X0247172Y0298282D01*
X0247369Y0298321D01*
X0247526Y0298361D01*
X0247644Y0298361D01*
X0247762Y0298321D01*
X0247881Y0298321D01*
X0247841Y0298361D01*
X0247684Y0298479D01*
X0247448Y0298597D01*
X0247133Y0298715D01*
X0246778Y0298833D01*
X0246385Y0298833D01*
X0245951Y0298754D01*
X0245518Y0298518D01*
X0245164Y0298203D01*
X0244967Y0297928D01*
X0244849Y0297573D01*
X0244849Y0297258D01*
X0244928Y0296904D01*
X0245125Y0296550D01*
X0245400Y0296235D01*
X0245715Y0295880D01*
X0245991Y0295565D01*
X0246109Y0295290D01*
X0246109Y0295014D01*
X0246030Y0294778D01*
X0245873Y0294581D01*
X0245636Y0294424D01*
X0245322Y0294345D01*
X0245007Y0294345D01*
X0244810Y0294384D01*
X0244613Y0294463D01*
X0244495Y0294542D01*
X0244377Y0294660D01*
X0244298Y0294817D01*
X0244259Y0294935D01*
X0244259Y0295054D01*
X0244298Y0295172D01*
X0244377Y0295290D01*
X0244534Y0295447D01*
X0244652Y0295487D01*
X0244810Y0295565D01*
X0244849Y0295605D01*
X0244770Y0295644D01*
X0244692Y0295644D01*
X0244534Y0295683D01*
X0244219Y0295683D01*
X0243983Y0295644D01*
X0243589Y0295487D01*
X0243432Y0295369D01*
X0243235Y0295250D01*
X0243117Y0295054D01*
X0242999Y0294817D01*
X0242920Y0294581D01*
X0242841Y0293872D01*
X0242841Y0288833D01*
X0242881Y0288833D01*
X0242959Y0288951D01*
X0243077Y0289069D01*
X0243196Y0289227D01*
X0243392Y0289424D01*
X0243589Y0289660D01*
X0243825Y0289896D01*
X0244022Y0290172D01*
X0244534Y0290683D01*
X0244731Y0290920D01*
X0245125Y0291235D01*
X0245322Y0291353D01*
X0245558Y0291392D01*
X0246306Y0291392D01*
X0246778Y0291471D01*
X0247211Y0291589D01*
X0247605Y0291746D01*
X0248186Y0292147D02*
X0242841Y0292147D01*
X0242841Y0292445D02*
X0248501Y0292445D01*
X0248761Y0292744D02*
X0242841Y0292744D01*
X0242841Y0293042D02*
X0248968Y0293042D01*
X0249134Y0293341D02*
X0242841Y0293341D01*
X0242841Y0293639D02*
X0249299Y0293639D01*
X0249382Y0293938D02*
X0242848Y0293938D01*
X0242882Y0294237D02*
X0249465Y0294237D01*
X0249505Y0294535D02*
X0245804Y0294535D01*
X0246049Y0294834D02*
X0249522Y0294834D01*
X0249519Y0295132D02*
X0246109Y0295132D01*
X0246049Y0295431D02*
X0249463Y0295431D01*
X0249400Y0295729D02*
X0245848Y0295729D01*
X0245584Y0296028D02*
X0249293Y0296028D01*
X0249166Y0296326D02*
X0245320Y0296326D01*
X0245083Y0296625D02*
X0247573Y0296625D01*
X0247104Y0296923D02*
X0244924Y0296923D01*
X0244857Y0297222D02*
X0246836Y0297222D01*
X0246703Y0297520D02*
X0244849Y0297520D01*
X0244931Y0297819D02*
X0246724Y0297819D01*
X0246900Y0298117D02*
X0245103Y0298117D01*
X0245403Y0298416D02*
X0247768Y0298416D01*
X0247135Y0298714D02*
X0245878Y0298714D01*
X0248314Y0296923D02*
X0248752Y0296923D01*
X0248992Y0296625D02*
X0248170Y0296625D01*
X0244517Y0295431D02*
X0243514Y0295431D01*
X0243164Y0295132D02*
X0244285Y0295132D01*
X0244292Y0294834D02*
X0243007Y0294834D01*
X0242915Y0294535D02*
X0244505Y0294535D01*
X0245153Y0291251D02*
X0242841Y0291251D01*
X0242841Y0290953D02*
X0244772Y0290953D01*
X0244505Y0290654D02*
X0242841Y0290654D01*
X0242841Y0290356D02*
X0244207Y0290356D01*
X0243941Y0290057D02*
X0242841Y0290057D01*
X0242841Y0289759D02*
X0243688Y0289759D01*
X0243423Y0289460D02*
X0242841Y0289460D01*
X0242841Y0289162D02*
X0243147Y0289162D01*
X0242901Y0288863D02*
X0242841Y0288863D01*
X0243135Y0287669D02*
X0244945Y0287669D01*
X0244640Y0287371D02*
X0242848Y0287371D01*
X0242561Y0287072D02*
X0244336Y0287072D01*
X0244032Y0286774D02*
X0242275Y0286774D01*
X0241988Y0286475D02*
X0243728Y0286475D01*
X0243423Y0286177D02*
X0241701Y0286177D01*
X0241227Y0287968D02*
X0239692Y0287968D01*
X0239692Y0288266D02*
X0241227Y0288266D01*
X0241227Y0288565D02*
X0239692Y0288565D01*
X0239692Y0288863D02*
X0241227Y0288863D01*
X0241227Y0289162D02*
X0240083Y0289162D01*
X0240637Y0289460D02*
X0241227Y0289460D01*
X0241227Y0289759D02*
X0241192Y0289759D01*
X0232797Y0282296D02*
X0230049Y0282296D01*
X0230695Y0281998D02*
X0231902Y0281998D01*
X0227765Y0282296D02*
X0225403Y0282296D01*
X0226217Y0281998D02*
X0226949Y0281998D01*
X0222644Y0283400D02*
X0222487Y0282967D01*
X0222251Y0282652D01*
X0221936Y0282376D01*
X0221542Y0282180D01*
X0221109Y0282061D01*
X0220636Y0281983D01*
X0220164Y0281943D01*
X0219692Y0281983D01*
X0219219Y0282061D01*
X0218786Y0282180D01*
X0218392Y0282376D01*
X0218077Y0282652D01*
X0217802Y0283006D01*
X0217644Y0283400D01*
X0217566Y0283912D01*
X0219022Y0283912D01*
X0219022Y0283676D01*
X0219101Y0283479D01*
X0219219Y0283321D01*
X0219534Y0283085D01*
X0219770Y0283046D01*
X0219967Y0283006D01*
X0220203Y0282967D01*
X0220361Y0283006D01*
X0220518Y0283006D01*
X0220676Y0283046D01*
X0220833Y0283124D01*
X0220991Y0283243D01*
X0221109Y0283361D01*
X0221188Y0283676D01*
X0221148Y0283833D01*
X0221070Y0283991D01*
X0220912Y0284109D01*
X0220715Y0284227D01*
X0220479Y0284306D01*
X0219849Y0284463D01*
X0219455Y0284542D01*
X0219101Y0284620D01*
X0218786Y0284739D01*
X0218510Y0284857D01*
X0218235Y0285014D01*
X0217999Y0285172D01*
X0217841Y0285408D01*
X0217723Y0285683D01*
X0217684Y0286038D01*
X0217723Y0286510D01*
X0217881Y0286904D01*
X0218156Y0287219D01*
X0218432Y0287455D01*
X0218825Y0287652D01*
X0219219Y0287731D01*
X0219652Y0287809D01*
X0220558Y0287809D01*
X0220991Y0287731D01*
X0221385Y0287613D01*
X0221739Y0287455D01*
X0222054Y0287219D01*
X0222290Y0286904D01*
X0222487Y0286510D01*
X0222566Y0286038D01*
X0221109Y0286038D01*
X0221070Y0286235D01*
X0220991Y0286431D01*
X0220912Y0286550D01*
X0220794Y0286628D01*
X0220636Y0286707D01*
X0220440Y0286786D01*
X0219770Y0286786D01*
X0219652Y0286746D01*
X0219495Y0286707D01*
X0219377Y0286668D01*
X0219219Y0286431D01*
X0219219Y0286274D01*
X0219259Y0286117D01*
X0219377Y0285959D01*
X0219534Y0285841D01*
X0219770Y0285723D01*
X0220007Y0285644D01*
X0220322Y0285605D01*
X0221266Y0285369D01*
X0221621Y0285290D01*
X0222172Y0284975D01*
X0222408Y0284778D01*
X0222566Y0284542D01*
X0222684Y0284266D01*
X0222723Y0283912D01*
X0222644Y0283400D01*
X0222658Y0283490D02*
X0221141Y0283490D01*
X0221159Y0283789D02*
X0222704Y0283789D01*
X0222704Y0284087D02*
X0220941Y0284087D01*
X0220159Y0284386D02*
X0222633Y0284386D01*
X0222471Y0284684D02*
X0218931Y0284684D01*
X0218290Y0284983D02*
X0222158Y0284983D01*
X0221636Y0285281D02*
X0217926Y0285281D01*
X0217768Y0285580D02*
X0220422Y0285580D01*
X0221081Y0286177D02*
X0222542Y0286177D01*
X0222493Y0286475D02*
X0220962Y0286475D01*
X0220470Y0286774D02*
X0222355Y0286774D01*
X0222164Y0287072D02*
X0218028Y0287072D01*
X0217828Y0286774D02*
X0219734Y0286774D01*
X0219248Y0286475D02*
X0217720Y0286475D01*
X0217695Y0286177D02*
X0219243Y0286177D01*
X0219484Y0285878D02*
X0217701Y0285878D01*
X0218333Y0287371D02*
X0221851Y0287371D01*
X0221196Y0287669D02*
X0218912Y0287669D01*
X0219022Y0283789D02*
X0217585Y0283789D01*
X0217630Y0283490D02*
X0219096Y0283490D01*
X0219392Y0283192D02*
X0217728Y0283192D01*
X0217890Y0282893D02*
X0222431Y0282893D01*
X0222569Y0283192D02*
X0220923Y0283192D01*
X0220726Y0281998D02*
X0219602Y0281998D01*
X0218553Y0282296D02*
X0221775Y0282296D01*
X0222185Y0282595D02*
X0218143Y0282595D01*
X0223353Y0287072D02*
X0224810Y0287072D01*
X0224881Y0287072D02*
X0228241Y0287072D01*
X0227923Y0287371D02*
X0225167Y0287371D01*
X0224810Y0287371D02*
X0223353Y0287371D01*
X0224699Y0287669D02*
X0224810Y0287669D01*
X0225613Y0287669D02*
X0227336Y0287669D01*
X0250596Y0281998D02*
X0251528Y0281998D01*
D12*
X0203215Y0265743D03*
X0203215Y0261057D03*
D13*
X0203215Y0261176D03*
X0203215Y0265624D03*
D14*
X0203215Y0265526D03*
D15*
X0203215Y0265408D03*
D16*
X0203215Y0265270D03*
X0203215Y0261491D03*
D17*
X0203215Y0261609D03*
X0203215Y0265152D03*
D18*
X0203215Y0265054D03*
D19*
X0199022Y0264955D03*
X0162833Y0292081D03*
X0164290Y0294128D03*
D20*
X0203156Y0264955D03*
D21*
X0207349Y0264955D03*
D22*
X0197546Y0264817D03*
X0197546Y0261983D03*
D23*
X0199849Y0263872D03*
X0200794Y0264817D03*
X0201148Y0262928D03*
X0206699Y0263872D03*
X0206699Y0261983D03*
X0219530Y0271298D03*
X0220948Y0270510D03*
X0220948Y0273345D03*
X0219530Y0273345D03*
X0222837Y0273345D03*
X0225514Y0272872D03*
X0225514Y0272715D03*
X0224570Y0270668D03*
X0227585Y0278613D03*
X0227585Y0278770D03*
X0227585Y0278928D03*
X0228373Y0280187D03*
X0230892Y0278928D03*
X0230892Y0278613D03*
X0234672Y0281132D03*
X0235302Y0277353D03*
X0241444Y0280187D03*
X0246168Y0280030D03*
X0247428Y0280030D03*
X0249948Y0280030D03*
X0248688Y0277510D03*
X0260030Y0273345D03*
X0261605Y0273502D03*
X0260030Y0271298D03*
X0265385Y0270510D03*
X0265062Y0309298D03*
X0266636Y0309455D03*
X0266636Y0311502D03*
X0261282Y0312290D03*
X0227136Y0311502D03*
X0225719Y0312290D03*
X0225719Y0309455D03*
X0227136Y0309455D03*
X0223829Y0309455D03*
X0221152Y0309928D03*
X0221152Y0310085D03*
X0222097Y0312132D03*
X0185247Y0309928D03*
X0147794Y0310243D03*
X0147794Y0310400D03*
X0147794Y0310557D03*
X0147794Y0310715D03*
X0145432Y0312290D03*
X0143542Y0311502D03*
X0142912Y0309613D03*
X0142912Y0309455D03*
X0139448Y0309455D03*
X0143755Y0273345D03*
X0143755Y0273187D03*
X0143125Y0271298D03*
X0141235Y0270510D03*
X0138873Y0272085D03*
X0138873Y0272243D03*
X0138873Y0272400D03*
X0138873Y0272557D03*
X0147219Y0273345D03*
X0181420Y0272872D03*
D24*
X0202329Y0264817D03*
X0203983Y0264817D03*
X0204928Y0261983D03*
D25*
X0203156Y0262928D03*
X0202329Y0263872D03*
X0201266Y0263400D03*
X0203983Y0263872D03*
X0205282Y0264817D03*
X0221184Y0270983D03*
X0221184Y0271140D03*
X0221184Y0271298D03*
X0221184Y0271455D03*
X0221184Y0271770D03*
X0221184Y0271928D03*
X0221184Y0272085D03*
X0221184Y0272243D03*
X0224963Y0271298D03*
X0225121Y0271455D03*
X0225121Y0271613D03*
X0225278Y0271928D03*
X0227010Y0272243D03*
X0227822Y0277038D03*
X0242782Y0279085D03*
X0261526Y0272400D03*
X0261526Y0272243D03*
X0261684Y0271928D03*
X0261684Y0271770D03*
X0261684Y0271613D03*
X0265463Y0271298D03*
X0265463Y0271140D03*
X0265463Y0270668D03*
X0265463Y0273502D03*
X0265463Y0273975D03*
X0261203Y0308825D03*
X0261203Y0309298D03*
X0261203Y0311502D03*
X0261203Y0311660D03*
X0261203Y0312132D03*
X0264983Y0311187D03*
X0264983Y0311030D03*
X0264983Y0310872D03*
X0265140Y0310557D03*
X0265140Y0310400D03*
X0225483Y0310557D03*
X0225483Y0310715D03*
X0225483Y0310872D03*
X0225483Y0311030D03*
X0225483Y0311345D03*
X0225483Y0311502D03*
X0225483Y0311660D03*
X0225483Y0311817D03*
X0221703Y0311502D03*
X0221546Y0311345D03*
X0221546Y0311187D03*
X0221388Y0310872D03*
X0219656Y0310557D03*
X0185483Y0308983D03*
X0185325Y0309298D03*
X0183121Y0310557D03*
X0183121Y0310715D03*
X0180759Y0308983D03*
X0145353Y0310243D03*
X0145353Y0310400D03*
X0145353Y0310557D03*
X0145353Y0310715D03*
X0145353Y0310872D03*
X0145353Y0311030D03*
X0145353Y0311187D03*
X0145353Y0311345D03*
X0145353Y0311502D03*
X0145353Y0311660D03*
X0145353Y0311817D03*
X0145353Y0311975D03*
X0143778Y0310872D03*
X0142676Y0310243D03*
X0142676Y0310085D03*
X0141259Y0310085D03*
X0141259Y0309928D03*
X0141259Y0309770D03*
X0141259Y0309613D03*
X0141259Y0309455D03*
X0141259Y0309298D03*
X0141259Y0309140D03*
X0141259Y0308983D03*
X0141259Y0308825D03*
X0141259Y0308668D03*
X0141259Y0310243D03*
X0141259Y0310400D03*
X0141259Y0310557D03*
X0141259Y0310715D03*
X0141259Y0310872D03*
X0141259Y0311030D03*
X0141259Y0311187D03*
X0141259Y0311345D03*
X0141259Y0311502D03*
X0141259Y0311660D03*
X0141259Y0311817D03*
X0141259Y0311975D03*
X0141259Y0312132D03*
X0145408Y0274132D03*
X0145408Y0273975D03*
X0145408Y0273817D03*
X0145408Y0273660D03*
X0145408Y0273502D03*
X0145408Y0273345D03*
X0145408Y0273187D03*
X0145408Y0273030D03*
X0145408Y0272872D03*
X0145408Y0272715D03*
X0145408Y0272557D03*
X0145408Y0272400D03*
X0145408Y0272243D03*
X0145408Y0272085D03*
X0145408Y0271928D03*
X0145408Y0271770D03*
X0145408Y0271613D03*
X0145408Y0271455D03*
X0145408Y0271298D03*
X0145408Y0271140D03*
X0145408Y0270983D03*
X0145408Y0270825D03*
X0145408Y0270668D03*
X0143991Y0272557D03*
X0143991Y0272715D03*
X0142888Y0271928D03*
X0141314Y0271928D03*
X0141314Y0272085D03*
X0141314Y0272243D03*
X0141314Y0272400D03*
X0141314Y0272557D03*
X0141314Y0271770D03*
X0141314Y0271613D03*
X0141314Y0271455D03*
X0141314Y0271298D03*
X0141314Y0271140D03*
X0141314Y0270983D03*
X0141314Y0270825D03*
X0181184Y0273817D03*
X0181341Y0273502D03*
X0183546Y0272243D03*
X0183546Y0272085D03*
X0185908Y0273817D03*
D26*
X0208589Y0264817D03*
X0208944Y0262928D03*
X0230554Y0270510D03*
X0230554Y0270668D03*
X0231995Y0277983D03*
X0231995Y0279557D03*
X0228688Y0279557D03*
X0228688Y0278140D03*
X0228688Y0277983D03*
X0237822Y0277983D03*
X0237822Y0278140D03*
X0237822Y0279400D03*
X0237822Y0279557D03*
X0245381Y0277825D03*
X0264282Y0272872D03*
X0264282Y0272715D03*
X0264282Y0272557D03*
X0264282Y0272400D03*
X0264282Y0272243D03*
X0264282Y0272085D03*
X0264282Y0271928D03*
X0264282Y0271770D03*
X0269951Y0270353D03*
X0270109Y0270510D03*
X0270109Y0270668D03*
X0262385Y0309928D03*
X0262385Y0310085D03*
X0262385Y0310243D03*
X0262385Y0310400D03*
X0262385Y0310557D03*
X0262385Y0310715D03*
X0262385Y0310872D03*
X0262385Y0311030D03*
X0256715Y0312447D03*
X0256558Y0312290D03*
X0256558Y0312132D03*
X0216113Y0312132D03*
X0216113Y0312290D03*
X0146534Y0309613D03*
X0140133Y0273187D03*
D27*
X0157774Y0291215D03*
X0166042Y0290624D03*
X0197546Y0264680D03*
X0197546Y0262120D03*
X0197664Y0261845D03*
X0208766Y0261845D03*
X0209003Y0262239D03*
X0209003Y0262317D03*
D28*
X0205223Y0263617D03*
X0205223Y0263735D03*
X0202270Y0264128D03*
X0201207Y0263262D03*
X0200853Y0264680D03*
X0167656Y0291884D03*
X0163955Y0290821D03*
X0159585Y0291884D03*
X0150924Y0294128D03*
X0150924Y0294325D03*
X0160058Y0298695D03*
D29*
X0199849Y0264010D03*
X0199849Y0263735D03*
X0199849Y0263617D03*
X0202329Y0264601D03*
X0202329Y0264680D03*
X0203983Y0264680D03*
X0203983Y0264601D03*
X0205046Y0262790D03*
X0205046Y0262672D03*
X0206699Y0262120D03*
X0206699Y0263735D03*
X0203156Y0262239D03*
X0203156Y0262120D03*
D30*
X0202270Y0263735D03*
X0201207Y0263735D03*
X0201207Y0263617D03*
X0201089Y0264207D03*
X0200971Y0264483D03*
X0205341Y0264483D03*
X0205341Y0264601D03*
X0205341Y0264680D03*
X0157341Y0298302D03*
D31*
X0167597Y0291609D03*
X0197369Y0264010D03*
X0197369Y0263735D03*
X0197369Y0263617D03*
X0197369Y0263538D03*
X0197369Y0263262D03*
X0197369Y0263183D03*
X0197369Y0263065D03*
X0197369Y0262790D03*
X0200676Y0262239D03*
X0200676Y0262120D03*
X0208944Y0262672D03*
X0209062Y0263262D03*
X0208825Y0264601D03*
X0208707Y0264680D03*
D32*
X0200558Y0262593D03*
X0197487Y0262317D03*
X0197487Y0262239D03*
X0197487Y0264483D03*
X0197487Y0264601D03*
X0154329Y0292278D03*
X0152873Y0293931D03*
X0152873Y0294128D03*
X0151219Y0290821D03*
D33*
X0158463Y0291884D03*
X0158463Y0287042D03*
X0173227Y0290428D03*
X0200912Y0264601D03*
X0201266Y0263538D03*
X0202329Y0264010D03*
X0203156Y0262790D03*
X0203156Y0262672D03*
X0203983Y0263735D03*
X0203983Y0264010D03*
X0205282Y0264010D03*
X0205282Y0264128D03*
X0205282Y0264207D03*
D34*
X0205105Y0263183D03*
X0205105Y0263065D03*
X0206640Y0263538D03*
X0206640Y0263617D03*
X0206640Y0264010D03*
X0206640Y0262317D03*
X0206640Y0262239D03*
X0203924Y0264483D03*
X0202270Y0264483D03*
X0201207Y0263065D03*
X0199790Y0263538D03*
D35*
X0200617Y0262317D03*
X0197428Y0262593D03*
X0197428Y0262672D03*
X0197428Y0264128D03*
X0197428Y0264207D03*
X0208885Y0264483D03*
X0209003Y0264207D03*
X0209003Y0264128D03*
X0209121Y0264010D03*
X0209121Y0263735D03*
X0209121Y0263617D03*
X0209121Y0263538D03*
X0209003Y0262593D03*
D36*
X0209003Y0262455D03*
X0209121Y0263872D03*
X0209003Y0264345D03*
X0200617Y0262455D03*
X0197428Y0262455D03*
X0197428Y0264345D03*
D37*
X0201030Y0264345D03*
X0203983Y0263400D03*
D38*
X0203983Y0264345D03*
X0205164Y0263400D03*
X0206581Y0262455D03*
X0203156Y0262455D03*
X0202329Y0264345D03*
D39*
X0201207Y0263872D03*
X0205341Y0264345D03*
D40*
X0205164Y0263538D03*
X0205164Y0263262D03*
X0203983Y0264128D03*
X0203983Y0264207D03*
X0202329Y0264207D03*
X0201266Y0263183D03*
X0199731Y0264128D03*
X0203156Y0262593D03*
X0203156Y0262317D03*
X0206581Y0262593D03*
X0206581Y0264128D03*
X0163030Y0299483D03*
X0150589Y0290152D03*
D41*
X0201148Y0264128D03*
X0201148Y0264010D03*
X0202329Y0263617D03*
X0202329Y0263538D03*
X0203156Y0263262D03*
X0203156Y0263183D03*
X0203156Y0263065D03*
X0203983Y0263538D03*
X0203983Y0263617D03*
D42*
X0200676Y0261983D03*
X0197369Y0262928D03*
X0197369Y0263400D03*
X0197369Y0263872D03*
X0209062Y0263400D03*
D43*
X0205223Y0263872D03*
D44*
X0202270Y0263400D03*
D45*
X0209003Y0263183D03*
X0209003Y0262790D03*
X0162971Y0295191D03*
X0158601Y0289168D03*
X0158601Y0288774D03*
X0153837Y0292672D03*
X0153050Y0294522D03*
D46*
X0159054Y0287908D03*
X0174014Y0291018D03*
X0208944Y0263065D03*
X0200676Y0261845D03*
D47*
X0205105Y0262928D03*
D48*
X0203097Y0261845D03*
X0201089Y0262790D03*
X0151751Y0289561D03*
X0151751Y0289758D03*
X0151751Y0289955D03*
D49*
X0154762Y0292081D03*
X0157479Y0291412D03*
X0157873Y0292278D03*
X0200912Y0262672D03*
D50*
X0204987Y0262593D03*
X0204987Y0262317D03*
X0158168Y0292081D03*
D51*
X0203097Y0261983D03*
X0204987Y0262455D03*
D52*
X0204928Y0262239D03*
X0204928Y0262120D03*
X0206699Y0261845D03*
D53*
X0208944Y0262120D03*
X0152085Y0287908D03*
X0152007Y0289168D03*
D54*
X0208944Y0261983D03*
D55*
X0204928Y0261845D03*
D56*
X0203215Y0261727D03*
D57*
X0203215Y0261412D03*
D58*
X0203215Y0261294D03*
D59*
X0183546Y0269250D03*
X0183546Y0275550D03*
X0183121Y0307250D03*
X0183121Y0313550D03*
D60*
X0183121Y0313392D03*
X0183121Y0307408D03*
X0143306Y0307250D03*
X0143306Y0313550D03*
X0143361Y0275550D03*
X0143361Y0269250D03*
X0183546Y0269408D03*
X0183546Y0275392D03*
X0263573Y0275235D03*
X0263573Y0269565D03*
X0263093Y0307565D03*
X0263093Y0313235D03*
D61*
X0263093Y0313077D03*
X0263093Y0307723D03*
X0263573Y0275077D03*
X0263573Y0269723D03*
X0183546Y0269565D03*
X0183546Y0275235D03*
X0183121Y0307565D03*
X0183121Y0313235D03*
D62*
X0183121Y0313077D03*
X0183121Y0307723D03*
X0183546Y0275077D03*
X0183546Y0269723D03*
X0263573Y0270038D03*
X0263573Y0274762D03*
X0263093Y0308038D03*
X0263093Y0312762D03*
D63*
X0263093Y0312605D03*
X0263093Y0308195D03*
X0223121Y0307723D03*
X0223121Y0313077D03*
X0183121Y0312920D03*
X0183121Y0307880D03*
X0143306Y0307565D03*
X0143306Y0313235D03*
X0143361Y0275235D03*
X0143361Y0269565D03*
X0183546Y0269880D03*
X0183546Y0274920D03*
X0223546Y0275077D03*
X0223546Y0269723D03*
X0263573Y0270195D03*
X0263573Y0274605D03*
D64*
X0223546Y0274920D03*
X0223546Y0269880D03*
X0183546Y0270038D03*
X0183546Y0274762D03*
X0183121Y0308038D03*
X0183121Y0312762D03*
X0223121Y0312920D03*
X0223121Y0307880D03*
D65*
X0223121Y0308038D03*
X0223121Y0312762D03*
X0183121Y0312605D03*
X0183121Y0308195D03*
X0143306Y0307723D03*
X0143306Y0313077D03*
X0143361Y0275077D03*
X0143361Y0269723D03*
X0183546Y0270195D03*
X0183546Y0274605D03*
X0223546Y0274762D03*
X0223546Y0270038D03*
D66*
X0216538Y0272400D03*
X0217168Y0274447D03*
X0230554Y0271770D03*
X0230554Y0271613D03*
X0257038Y0272400D03*
X0257668Y0274447D03*
X0268999Y0308353D03*
X0269629Y0310400D03*
X0230129Y0310400D03*
X0229499Y0308353D03*
X0216113Y0311030D03*
X0216113Y0311187D03*
X0189971Y0309770D03*
X0189341Y0308353D03*
X0176900Y0308353D03*
X0176270Y0310400D03*
X0150314Y0308825D03*
X0150156Y0308668D03*
X0136455Y0308668D03*
X0136298Y0308825D03*
X0136510Y0274132D03*
X0136353Y0273975D03*
X0150211Y0274132D03*
X0150369Y0273975D03*
X0176696Y0273030D03*
X0177325Y0274447D03*
X0189766Y0274447D03*
X0190396Y0272400D03*
D67*
X0183546Y0274447D03*
X0183121Y0308353D03*
X0258841Y0308353D03*
X0267825Y0274447D03*
D68*
X0257353Y0274290D03*
X0256881Y0273187D03*
X0256881Y0273030D03*
X0256881Y0272872D03*
X0256881Y0272715D03*
X0257353Y0270510D03*
X0257510Y0270353D03*
X0230554Y0271298D03*
X0230554Y0271455D03*
X0216853Y0270510D03*
X0216381Y0272872D03*
X0216381Y0273030D03*
X0216381Y0273187D03*
X0190554Y0272872D03*
X0190554Y0272715D03*
X0190554Y0272243D03*
X0190554Y0272085D03*
X0189924Y0270353D03*
X0190081Y0274290D03*
X0177010Y0274290D03*
X0176538Y0273187D03*
X0176538Y0271770D03*
X0177168Y0270353D03*
X0150841Y0271613D03*
X0150684Y0271298D03*
X0150684Y0271140D03*
X0150526Y0270983D03*
X0150841Y0273187D03*
X0150684Y0273502D03*
X0136196Y0273817D03*
X0136038Y0273502D03*
X0135881Y0273187D03*
X0135881Y0273030D03*
X0135881Y0271770D03*
X0135881Y0271613D03*
X0136038Y0271298D03*
X0136038Y0271140D03*
X0136196Y0270983D03*
X0135983Y0309298D03*
X0135825Y0309613D03*
X0135825Y0311187D03*
X0135983Y0311502D03*
X0135983Y0311660D03*
X0136140Y0311817D03*
X0150471Y0311817D03*
X0150629Y0311660D03*
X0150629Y0311502D03*
X0150786Y0311187D03*
X0150786Y0311030D03*
X0150786Y0309770D03*
X0150786Y0309613D03*
X0150629Y0309298D03*
X0150471Y0308983D03*
X0176113Y0309928D03*
X0176113Y0310085D03*
X0176113Y0310557D03*
X0176113Y0310715D03*
X0176743Y0312447D03*
X0176585Y0308510D03*
X0189656Y0308510D03*
X0190129Y0309613D03*
X0190129Y0311030D03*
X0189499Y0312447D03*
X0216113Y0311502D03*
X0216113Y0311345D03*
X0229814Y0312290D03*
X0230286Y0309928D03*
X0230286Y0309770D03*
X0230286Y0309613D03*
X0269156Y0312447D03*
X0269314Y0312290D03*
X0269786Y0310085D03*
X0269786Y0309928D03*
X0269786Y0309770D03*
X0269786Y0309613D03*
X0269314Y0308510D03*
D69*
X0266715Y0311345D03*
X0265455Y0310085D03*
X0265140Y0309455D03*
X0264983Y0309140D03*
X0264825Y0308983D03*
X0262778Y0309455D03*
X0261361Y0308510D03*
X0264825Y0311975D03*
X0227215Y0311345D03*
X0225798Y0308510D03*
X0222176Y0312290D03*
X0187215Y0309770D03*
X0187058Y0309613D03*
X0187058Y0311187D03*
X0187058Y0311345D03*
X0185168Y0310085D03*
X0185640Y0308510D03*
X0183121Y0309928D03*
X0183121Y0310085D03*
X0180601Y0308510D03*
X0179341Y0309770D03*
X0179184Y0309613D03*
X0179184Y0311187D03*
X0179184Y0311345D03*
X0147715Y0310085D03*
X0147085Y0309455D03*
X0142991Y0309298D03*
X0143463Y0311660D03*
X0139369Y0311345D03*
X0139369Y0309613D03*
X0181026Y0274290D03*
X0181499Y0272715D03*
X0179609Y0273187D03*
X0179451Y0273030D03*
X0179609Y0271613D03*
X0179609Y0271455D03*
X0183546Y0272715D03*
X0183546Y0272872D03*
X0186066Y0274290D03*
X0187325Y0273030D03*
X0187483Y0273187D03*
X0187483Y0271613D03*
X0187483Y0271455D03*
X0219451Y0271455D03*
X0220869Y0274290D03*
X0224491Y0270510D03*
X0229396Y0277038D03*
X0229554Y0277195D03*
X0229554Y0277353D03*
X0229554Y0278613D03*
X0229554Y0278770D03*
X0229554Y0278928D03*
X0230814Y0278770D03*
X0230971Y0278455D03*
X0230971Y0279085D03*
X0232861Y0278928D03*
X0232861Y0278770D03*
X0232861Y0278613D03*
X0234751Y0278613D03*
X0234751Y0278770D03*
X0234751Y0278928D03*
X0234751Y0279085D03*
X0234751Y0278455D03*
X0234751Y0278298D03*
X0234751Y0280345D03*
X0234751Y0280502D03*
X0234751Y0280660D03*
X0234751Y0280817D03*
X0234751Y0280975D03*
X0236798Y0279085D03*
X0236798Y0278928D03*
X0236798Y0278770D03*
X0236798Y0278613D03*
X0236798Y0278455D03*
X0238845Y0278455D03*
X0238845Y0278613D03*
X0238845Y0278770D03*
X0238845Y0278928D03*
X0238845Y0279085D03*
X0240262Y0279085D03*
X0240262Y0278928D03*
X0240262Y0278770D03*
X0240262Y0278613D03*
X0240262Y0278455D03*
X0240262Y0278298D03*
X0240262Y0278140D03*
X0240262Y0277983D03*
X0240262Y0277825D03*
X0240262Y0277668D03*
X0240262Y0277510D03*
X0242782Y0277510D03*
X0242782Y0277668D03*
X0242782Y0277825D03*
X0242782Y0277983D03*
X0242782Y0278140D03*
X0242782Y0279243D03*
X0242782Y0279400D03*
X0242782Y0279557D03*
X0242782Y0279715D03*
X0242782Y0279872D03*
X0244199Y0279872D03*
X0244199Y0279715D03*
X0244199Y0279557D03*
X0244199Y0279400D03*
X0244199Y0279243D03*
X0244199Y0279085D03*
X0244199Y0278928D03*
X0244199Y0278770D03*
X0244199Y0278613D03*
X0244199Y0280030D03*
X0246247Y0279872D03*
X0246247Y0279715D03*
X0246247Y0279557D03*
X0246247Y0279400D03*
X0246247Y0279243D03*
X0246247Y0279085D03*
X0246247Y0278928D03*
X0246247Y0278770D03*
X0246247Y0278613D03*
X0247664Y0279400D03*
X0247822Y0279243D03*
X0247979Y0278928D03*
X0247507Y0279715D03*
X0247507Y0279872D03*
X0249396Y0278928D03*
X0249554Y0279243D03*
X0249869Y0279715D03*
X0249869Y0279872D03*
X0259951Y0271455D03*
X0261211Y0272715D03*
X0261526Y0273345D03*
X0261684Y0273660D03*
X0261841Y0273817D03*
X0263888Y0273345D03*
X0265306Y0274290D03*
X0261841Y0270825D03*
X0227664Y0278455D03*
X0227664Y0279085D03*
X0147298Y0273187D03*
X0147298Y0271455D03*
X0143203Y0271140D03*
X0143676Y0273502D03*
X0139581Y0273345D03*
X0138951Y0272715D03*
D70*
X0183546Y0274132D03*
X0183546Y0274290D03*
X0185908Y0272085D03*
X0220239Y0273187D03*
X0227010Y0270353D03*
X0228924Y0277510D03*
X0232231Y0277510D03*
X0232231Y0280030D03*
X0234908Y0280030D03*
X0234908Y0279872D03*
X0234908Y0279715D03*
X0234908Y0279557D03*
X0234908Y0279400D03*
X0240892Y0279557D03*
X0240892Y0279715D03*
X0240892Y0279872D03*
X0240892Y0280030D03*
X0245459Y0277510D03*
X0260739Y0273187D03*
X0261999Y0274290D03*
X0264668Y0308510D03*
X0265928Y0309613D03*
X0226428Y0309613D03*
X0219656Y0312447D03*
X0183121Y0308668D03*
X0183121Y0308510D03*
X0180759Y0310715D03*
D71*
X0176507Y0312290D03*
X0176034Y0311187D03*
X0176034Y0311030D03*
X0176034Y0310872D03*
X0176034Y0309770D03*
X0176034Y0309613D03*
X0176192Y0309140D03*
X0176349Y0308825D03*
X0176507Y0308668D03*
X0189735Y0308668D03*
X0189892Y0308825D03*
X0190050Y0309140D03*
X0190050Y0309298D03*
X0190050Y0309455D03*
X0190207Y0311187D03*
X0189735Y0312290D03*
X0216034Y0311660D03*
X0229892Y0308668D03*
X0230050Y0308825D03*
X0230050Y0308983D03*
X0230207Y0309140D03*
X0230207Y0309298D03*
X0230207Y0309455D03*
X0230207Y0311345D03*
X0230207Y0311502D03*
X0230207Y0311660D03*
X0230050Y0311975D03*
X0264668Y0308353D03*
X0269392Y0308668D03*
X0269550Y0308825D03*
X0269550Y0308983D03*
X0269707Y0309140D03*
X0269707Y0309298D03*
X0269707Y0309455D03*
X0269707Y0311345D03*
X0269707Y0311502D03*
X0261999Y0274447D03*
X0257274Y0274132D03*
X0257117Y0273975D03*
X0257117Y0273817D03*
X0256959Y0273660D03*
X0256959Y0273502D03*
X0256959Y0273345D03*
X0256959Y0271455D03*
X0256959Y0271298D03*
X0230633Y0271140D03*
X0216617Y0270825D03*
X0216459Y0271140D03*
X0216459Y0271298D03*
X0216459Y0271455D03*
X0216459Y0273345D03*
X0216459Y0273502D03*
X0216459Y0273660D03*
X0216617Y0273817D03*
X0216617Y0273975D03*
X0216774Y0274132D03*
X0190633Y0273187D03*
X0190633Y0273030D03*
X0190475Y0273660D03*
X0190318Y0273975D03*
X0190160Y0274132D03*
X0190633Y0271928D03*
X0190633Y0271770D03*
X0190633Y0271613D03*
X0190160Y0270510D03*
X0176932Y0270510D03*
X0176459Y0271613D03*
X0176617Y0273345D03*
X0176617Y0273502D03*
X0176617Y0273660D03*
X0176774Y0273975D03*
X0176932Y0274132D03*
X0150920Y0273030D03*
X0150920Y0272872D03*
X0150920Y0272715D03*
X0150920Y0272557D03*
X0150920Y0272400D03*
X0150920Y0272243D03*
X0150920Y0272085D03*
X0150920Y0271928D03*
X0150920Y0271770D03*
X0150762Y0271455D03*
X0150762Y0273345D03*
X0135959Y0273345D03*
X0135802Y0272872D03*
X0135802Y0272715D03*
X0135802Y0272557D03*
X0135802Y0272400D03*
X0135802Y0272243D03*
X0135802Y0272085D03*
X0135802Y0271928D03*
X0135959Y0271455D03*
X0135904Y0309455D03*
X0135747Y0309770D03*
X0135747Y0309928D03*
X0135747Y0310085D03*
X0135747Y0310243D03*
X0135747Y0310400D03*
X0135747Y0310557D03*
X0135747Y0310715D03*
X0135747Y0310872D03*
X0135747Y0311030D03*
X0135904Y0311345D03*
X0150707Y0311345D03*
X0150865Y0310872D03*
X0150865Y0310715D03*
X0150865Y0310557D03*
X0150865Y0310400D03*
X0150865Y0310243D03*
X0150865Y0310085D03*
X0150865Y0309928D03*
X0150707Y0309455D03*
D72*
X0147085Y0311502D03*
X0145510Y0309455D03*
X0145510Y0308668D03*
X0142833Y0309770D03*
X0143621Y0311187D03*
X0143621Y0311345D03*
X0141259Y0312447D03*
X0179184Y0311502D03*
X0179184Y0309455D03*
X0180601Y0308668D03*
X0180916Y0309455D03*
X0180916Y0309613D03*
X0183121Y0310243D03*
X0183121Y0310400D03*
X0185168Y0309770D03*
X0185640Y0308668D03*
X0187058Y0309455D03*
X0187058Y0311502D03*
X0221231Y0310400D03*
X0221231Y0310243D03*
X0225640Y0310243D03*
X0225640Y0309298D03*
X0225640Y0308668D03*
X0225640Y0312132D03*
X0261361Y0309613D03*
X0262778Y0311502D03*
X0264825Y0311660D03*
X0264825Y0311817D03*
X0265298Y0310243D03*
X0246247Y0280187D03*
X0244199Y0280187D03*
X0242782Y0280030D03*
X0240262Y0280187D03*
X0240262Y0277353D03*
X0242782Y0277353D03*
X0244987Y0277353D03*
X0246247Y0277353D03*
X0261369Y0272557D03*
X0261841Y0271140D03*
X0261841Y0270983D03*
X0263888Y0271298D03*
X0265306Y0273187D03*
X0232861Y0277353D03*
X0231759Y0277353D03*
X0231759Y0280187D03*
X0232861Y0280187D03*
X0229554Y0280187D03*
X0221026Y0274132D03*
X0221026Y0273502D03*
X0221026Y0272557D03*
X0221026Y0270668D03*
X0225436Y0272400D03*
X0225436Y0272557D03*
X0187483Y0273345D03*
X0186066Y0274132D03*
X0185751Y0273345D03*
X0185751Y0273187D03*
X0183546Y0272557D03*
X0183546Y0272400D03*
X0181499Y0273030D03*
X0181026Y0274132D03*
X0179609Y0273345D03*
X0179609Y0271298D03*
X0187483Y0271298D03*
X0145408Y0270353D03*
X0143046Y0271455D03*
X0143046Y0271613D03*
X0143833Y0273030D03*
X0141156Y0273345D03*
X0141156Y0274132D03*
X0139581Y0271298D03*
D73*
X0141235Y0270668D03*
X0141235Y0272715D03*
X0141235Y0273502D03*
X0141235Y0273660D03*
X0141235Y0273817D03*
X0141235Y0273975D03*
X0142967Y0271770D03*
X0143912Y0272872D03*
X0145487Y0274290D03*
X0147062Y0271298D03*
X0145487Y0270510D03*
X0181105Y0273975D03*
X0181262Y0273660D03*
X0181420Y0273345D03*
X0181420Y0273187D03*
X0185829Y0273502D03*
X0185829Y0273660D03*
X0185987Y0273975D03*
X0219530Y0273502D03*
X0221105Y0273660D03*
X0221105Y0273817D03*
X0221105Y0273975D03*
X0221105Y0272400D03*
X0221105Y0270825D03*
X0222837Y0271298D03*
X0224727Y0270983D03*
X0224727Y0270825D03*
X0224885Y0271140D03*
X0225199Y0271770D03*
X0225357Y0272085D03*
X0225357Y0272243D03*
X0227089Y0272085D03*
X0242861Y0278298D03*
X0247585Y0280187D03*
X0249790Y0280187D03*
X0248688Y0277353D03*
X0260030Y0273502D03*
X0261762Y0271455D03*
X0261762Y0271298D03*
X0265385Y0271455D03*
X0265385Y0273345D03*
X0265385Y0274132D03*
X0261282Y0308668D03*
X0261282Y0309455D03*
X0261282Y0311345D03*
X0264904Y0311345D03*
X0264904Y0311502D03*
X0266636Y0309298D03*
X0227136Y0309298D03*
X0225562Y0309140D03*
X0225562Y0308983D03*
X0225562Y0308825D03*
X0225562Y0310400D03*
X0225562Y0311975D03*
X0223829Y0311502D03*
X0221940Y0311817D03*
X0221940Y0311975D03*
X0221782Y0311660D03*
X0221467Y0311030D03*
X0221310Y0310715D03*
X0221310Y0310557D03*
X0219577Y0310715D03*
X0185562Y0308825D03*
X0185404Y0309140D03*
X0185247Y0309455D03*
X0185247Y0309613D03*
X0180837Y0309298D03*
X0180837Y0309140D03*
X0180680Y0308825D03*
X0145432Y0308825D03*
X0145432Y0308983D03*
X0145432Y0309140D03*
X0145432Y0309298D03*
X0145432Y0310085D03*
X0143699Y0311030D03*
X0142755Y0309928D03*
X0141180Y0308510D03*
X0139605Y0311502D03*
X0141180Y0312290D03*
X0145432Y0312132D03*
D74*
X0180601Y0310243D03*
X0180601Y0310085D03*
X0181546Y0311975D03*
X0184696Y0311975D03*
X0183121Y0308983D03*
X0183121Y0308825D03*
X0219656Y0312132D03*
X0221231Y0308983D03*
X0234908Y0280187D03*
X0225436Y0273817D03*
X0227010Y0270668D03*
X0186066Y0272557D03*
X0186066Y0272715D03*
X0185121Y0270825D03*
X0181971Y0270825D03*
X0183546Y0273817D03*
X0183546Y0273975D03*
D75*
X0190396Y0273817D03*
X0190554Y0273502D03*
X0190554Y0273345D03*
X0190554Y0271455D03*
X0190554Y0271298D03*
X0190554Y0271140D03*
X0190396Y0270825D03*
X0190239Y0270668D03*
X0176853Y0270668D03*
X0176696Y0270825D03*
X0176538Y0271140D03*
X0176538Y0271298D03*
X0176538Y0271455D03*
X0176696Y0273817D03*
X0216538Y0270983D03*
X0216696Y0270668D03*
X0225199Y0274290D03*
X0230554Y0270983D03*
X0256881Y0271140D03*
X0257038Y0270983D03*
X0257038Y0270825D03*
X0257196Y0270668D03*
X0221467Y0308510D03*
X0216113Y0311817D03*
X0229971Y0312132D03*
X0230129Y0311817D03*
X0269471Y0312132D03*
X0269629Y0311975D03*
X0269629Y0311817D03*
X0269786Y0311660D03*
X0190129Y0311660D03*
X0190129Y0311502D03*
X0190129Y0311345D03*
X0189971Y0311975D03*
X0189814Y0312132D03*
X0189971Y0308983D03*
X0176270Y0308983D03*
X0176113Y0309298D03*
X0176113Y0309455D03*
X0176113Y0311345D03*
X0176113Y0311502D03*
X0176113Y0311660D03*
X0176270Y0311975D03*
X0176428Y0312132D03*
D76*
X0180522Y0309928D03*
X0183042Y0309140D03*
X0219577Y0311975D03*
X0226192Y0309928D03*
X0264747Y0312290D03*
X0265692Y0309928D03*
X0248688Y0278298D03*
X0237822Y0277510D03*
X0237822Y0280030D03*
X0228530Y0276250D03*
X0227089Y0270825D03*
X0220475Y0272872D03*
X0186144Y0272872D03*
X0183625Y0273660D03*
X0143440Y0274290D03*
X0143440Y0270353D03*
X0143227Y0308510D03*
X0143227Y0312447D03*
X0260975Y0272872D03*
X0261920Y0270510D03*
D77*
X0261605Y0272085D03*
X0265542Y0270983D03*
X0265542Y0270825D03*
X0265542Y0273660D03*
X0265542Y0273817D03*
X0241601Y0279243D03*
X0237822Y0280345D03*
X0235617Y0279243D03*
X0234672Y0281290D03*
X0228373Y0277353D03*
X0227089Y0272557D03*
X0227089Y0272400D03*
X0221262Y0271613D03*
X0187562Y0273502D03*
X0179688Y0273502D03*
X0144070Y0272400D03*
X0142810Y0272243D03*
X0142810Y0272085D03*
X0142597Y0310400D03*
X0143857Y0310557D03*
X0143857Y0310715D03*
X0179105Y0309298D03*
X0186979Y0309298D03*
X0219577Y0310243D03*
X0219577Y0310400D03*
X0225404Y0311187D03*
X0261125Y0311817D03*
X0261125Y0311975D03*
X0261125Y0309140D03*
X0261125Y0308983D03*
X0265062Y0310715D03*
D78*
X0264668Y0308668D03*
X0223436Y0310243D03*
X0223436Y0310400D03*
X0223436Y0310557D03*
X0222333Y0312447D03*
X0219656Y0311817D03*
X0221231Y0309140D03*
X0184696Y0311660D03*
X0184696Y0311817D03*
X0183121Y0309298D03*
X0181546Y0311660D03*
X0181546Y0311817D03*
X0143306Y0312290D03*
X0143361Y0270510D03*
X0181971Y0270983D03*
X0181971Y0271140D03*
X0183546Y0273502D03*
X0185121Y0271140D03*
X0185121Y0270983D03*
X0223231Y0272243D03*
X0223231Y0272400D03*
X0223231Y0272557D03*
X0224333Y0270353D03*
X0227010Y0270983D03*
X0225436Y0273660D03*
X0235066Y0277983D03*
X0261999Y0274132D03*
D79*
X0263967Y0273187D03*
X0261920Y0270668D03*
X0248688Y0277983D03*
X0248688Y0278140D03*
X0235144Y0277825D03*
X0235144Y0277668D03*
X0234987Y0278140D03*
X0225514Y0273502D03*
X0225514Y0273345D03*
X0223152Y0272872D03*
X0223152Y0272715D03*
X0223152Y0272085D03*
X0223152Y0271928D03*
X0223152Y0271770D03*
X0227089Y0271140D03*
X0185357Y0271770D03*
X0185199Y0271455D03*
X0185199Y0271298D03*
X0183625Y0273345D03*
X0181420Y0272400D03*
X0181892Y0271455D03*
X0181892Y0271298D03*
X0147534Y0272085D03*
X0147534Y0272243D03*
X0147534Y0272400D03*
X0147534Y0272557D03*
X0147534Y0272715D03*
X0143440Y0274132D03*
X0139345Y0271928D03*
X0139345Y0271770D03*
X0143227Y0308668D03*
X0139133Y0310085D03*
X0139133Y0310243D03*
X0139133Y0310400D03*
X0139133Y0310557D03*
X0139133Y0310715D03*
X0147322Y0310872D03*
X0147322Y0311030D03*
X0181310Y0311030D03*
X0181467Y0311345D03*
X0181467Y0311502D03*
X0183042Y0309455D03*
X0185247Y0310400D03*
X0184774Y0311345D03*
X0184774Y0311502D03*
X0219577Y0311660D03*
X0221152Y0309455D03*
X0221152Y0309298D03*
X0223514Y0309928D03*
X0223514Y0310085D03*
X0223514Y0310715D03*
X0223514Y0310872D03*
X0223514Y0311030D03*
X0262699Y0309613D03*
X0264747Y0312132D03*
D80*
X0262778Y0311345D03*
X0225798Y0312447D03*
X0223593Y0311187D03*
X0223593Y0309770D03*
X0185010Y0310715D03*
X0184853Y0311030D03*
X0184853Y0311187D03*
X0183121Y0309613D03*
X0181388Y0311187D03*
X0147243Y0311187D03*
X0143306Y0312132D03*
X0143148Y0308983D03*
X0143148Y0308825D03*
X0139211Y0309928D03*
X0139211Y0310872D03*
X0139211Y0311030D03*
X0143518Y0273975D03*
X0143518Y0273817D03*
X0143361Y0270668D03*
X0139424Y0271613D03*
X0147455Y0271770D03*
X0147455Y0271928D03*
X0147455Y0272872D03*
X0181656Y0272085D03*
X0181814Y0271770D03*
X0181814Y0271613D03*
X0183546Y0273187D03*
X0185278Y0271613D03*
X0220869Y0270353D03*
X0223073Y0271613D03*
X0223073Y0273030D03*
X0229396Y0279243D03*
X0235223Y0277510D03*
X0237900Y0280187D03*
X0263888Y0271455D03*
D81*
X0265227Y0270353D03*
X0261920Y0273975D03*
X0259873Y0271613D03*
X0248688Y0277668D03*
X0248688Y0277825D03*
X0249475Y0279085D03*
X0249633Y0279400D03*
X0249790Y0279557D03*
X0247900Y0279085D03*
X0247585Y0279557D03*
X0246168Y0278455D03*
X0244278Y0278455D03*
X0240341Y0279243D03*
X0238766Y0279243D03*
X0238766Y0278298D03*
X0237822Y0277353D03*
X0237034Y0278298D03*
X0236877Y0279243D03*
X0234672Y0279243D03*
X0232782Y0279085D03*
X0232782Y0278455D03*
X0229475Y0278455D03*
X0229475Y0279085D03*
X0227743Y0279243D03*
X0225514Y0273187D03*
X0225514Y0273030D03*
X0222995Y0273187D03*
X0222995Y0271455D03*
X0220790Y0272715D03*
X0219373Y0271613D03*
X0187404Y0271770D03*
X0185829Y0273030D03*
X0183625Y0273030D03*
X0181735Y0271928D03*
X0181577Y0272243D03*
X0181420Y0272557D03*
X0179530Y0271770D03*
X0147377Y0271613D03*
X0147377Y0273030D03*
X0143597Y0273660D03*
X0141077Y0274290D03*
X0139503Y0271455D03*
X0141077Y0270353D03*
X0143282Y0270825D03*
X0143282Y0270983D03*
X0145589Y0308510D03*
X0143070Y0309140D03*
X0143385Y0311817D03*
X0143385Y0311975D03*
X0145589Y0312447D03*
X0147164Y0311345D03*
X0139290Y0311187D03*
X0139290Y0309770D03*
X0179262Y0311030D03*
X0180837Y0309770D03*
X0183042Y0309770D03*
X0184932Y0310872D03*
X0185089Y0310557D03*
X0185247Y0310243D03*
X0187136Y0311030D03*
X0221152Y0309770D03*
X0221152Y0309613D03*
X0223672Y0309613D03*
X0223672Y0311345D03*
X0225877Y0310085D03*
X0227294Y0311187D03*
X0261440Y0312447D03*
X0264747Y0308825D03*
X0266794Y0311187D03*
D82*
X0229814Y0310715D03*
X0216900Y0308668D03*
X0216743Y0308983D03*
X0216585Y0309298D03*
X0216585Y0309455D03*
X0216428Y0309770D03*
X0216428Y0309928D03*
X0189656Y0309928D03*
X0189656Y0310085D03*
X0189656Y0310243D03*
X0189656Y0310400D03*
X0189656Y0310557D03*
X0189656Y0310715D03*
X0229766Y0274132D03*
X0229924Y0273817D03*
X0230081Y0273502D03*
X0230081Y0273345D03*
X0230239Y0273030D03*
X0230239Y0272872D03*
X0216853Y0272085D03*
X0177010Y0272085D03*
X0177010Y0272243D03*
X0177010Y0272400D03*
X0177010Y0272557D03*
X0177010Y0272715D03*
X0177010Y0272872D03*
D83*
X0190475Y0272557D03*
X0216459Y0272557D03*
X0216459Y0272715D03*
X0216459Y0271613D03*
X0217089Y0270353D03*
X0216932Y0274290D03*
X0256959Y0272557D03*
X0256959Y0271613D03*
X0269707Y0310243D03*
X0269707Y0311187D03*
X0230207Y0311187D03*
X0230207Y0310243D03*
X0230207Y0310085D03*
X0229735Y0308510D03*
X0229577Y0312447D03*
X0176192Y0310243D03*
X0150550Y0309140D03*
X0150392Y0311975D03*
X0150235Y0312132D03*
X0136377Y0312132D03*
X0136219Y0311975D03*
X0136062Y0309140D03*
X0136219Y0308983D03*
X0136117Y0273660D03*
X0136274Y0270825D03*
X0136432Y0270668D03*
X0150290Y0270668D03*
X0150448Y0270825D03*
X0150605Y0273660D03*
X0150448Y0273817D03*
D84*
X0181892Y0270668D03*
X0185199Y0270668D03*
X0185987Y0272243D03*
X0185987Y0272400D03*
X0220318Y0273030D03*
X0225357Y0273975D03*
X0227089Y0270510D03*
X0228530Y0276408D03*
X0228845Y0280030D03*
X0237822Y0279872D03*
X0237822Y0277668D03*
X0240814Y0279400D03*
X0248688Y0278613D03*
X0248688Y0278455D03*
X0260818Y0273030D03*
X0265849Y0309770D03*
X0226349Y0309770D03*
X0221310Y0308825D03*
X0219577Y0312290D03*
X0184774Y0312132D03*
X0181467Y0312132D03*
X0180680Y0310557D03*
X0180680Y0310400D03*
D85*
X0189341Y0310872D03*
X0177325Y0271928D03*
X0257345Y0309140D03*
X0257345Y0309298D03*
X0257345Y0309455D03*
X0257345Y0311345D03*
X0257345Y0311502D03*
X0257345Y0311660D03*
X0269322Y0273660D03*
X0269322Y0273502D03*
X0269322Y0273345D03*
X0269322Y0271455D03*
X0269322Y0271298D03*
X0269322Y0271140D03*
D86*
X0237900Y0277195D03*
X0183546Y0271928D03*
X0183546Y0271770D03*
X0144148Y0272243D03*
X0142731Y0272400D03*
X0143936Y0310400D03*
X0142518Y0310557D03*
X0183121Y0310872D03*
X0183121Y0311030D03*
D87*
X0184853Y0312447D03*
X0181388Y0312447D03*
X0180444Y0310872D03*
X0176192Y0311817D03*
X0190050Y0311817D03*
X0216034Y0311975D03*
X0216349Y0312447D03*
X0256479Y0311975D03*
X0256479Y0311817D03*
X0245302Y0278298D03*
X0245302Y0278140D03*
X0245302Y0277983D03*
X0231916Y0278140D03*
X0231916Y0278298D03*
X0231916Y0279243D03*
X0231916Y0279400D03*
X0228609Y0279400D03*
X0228609Y0278298D03*
X0230633Y0270825D03*
X0230318Y0270353D03*
X0270188Y0270825D03*
X0270188Y0270983D03*
X0190475Y0270983D03*
X0186223Y0271928D03*
X0185278Y0270353D03*
X0181814Y0270353D03*
X0176617Y0270983D03*
X0140054Y0272872D03*
X0140054Y0273030D03*
X0146613Y0309770D03*
X0146613Y0309928D03*
D88*
X0181467Y0312290D03*
X0184774Y0312290D03*
X0228845Y0277668D03*
X0228688Y0276880D03*
X0228530Y0276565D03*
X0232152Y0277668D03*
X0232152Y0279872D03*
X0237822Y0279715D03*
X0237822Y0277825D03*
X0248688Y0278770D03*
X0261920Y0270353D03*
X0264747Y0312447D03*
X0185199Y0270510D03*
X0181892Y0270510D03*
D89*
X0223546Y0269565D03*
X0223546Y0275235D03*
X0263573Y0274920D03*
X0263573Y0269880D03*
X0263093Y0307880D03*
X0263093Y0312920D03*
X0223121Y0313235D03*
X0223121Y0307565D03*
X0143306Y0307408D03*
X0143306Y0313392D03*
X0143361Y0275392D03*
X0143361Y0269408D03*
D90*
X0143361Y0269880D03*
X0143361Y0274920D03*
X0143306Y0307880D03*
X0143306Y0312920D03*
X0223121Y0312605D03*
X0223121Y0308195D03*
X0223546Y0274605D03*
X0223546Y0270195D03*
D91*
X0143361Y0270038D03*
X0143361Y0274762D03*
X0143306Y0308038D03*
X0143306Y0312762D03*
D92*
X0143306Y0312605D03*
X0143306Y0308195D03*
X0143361Y0274605D03*
X0143361Y0270195D03*
D93*
X0136904Y0274447D03*
X0149818Y0270353D03*
X0149762Y0308353D03*
X0136849Y0312447D03*
X0216349Y0310243D03*
X0216349Y0310085D03*
X0230318Y0272715D03*
X0230318Y0272557D03*
X0257274Y0272085D03*
X0269392Y0310715D03*
D94*
X0220837Y0308353D03*
X0225829Y0274447D03*
X0145959Y0274447D03*
X0140707Y0308353D03*
D95*
X0136613Y0308510D03*
X0149999Y0308510D03*
X0149841Y0312447D03*
X0150054Y0274290D03*
X0136668Y0274290D03*
X0136825Y0270353D03*
X0216270Y0310400D03*
X0216270Y0310557D03*
X0230396Y0272400D03*
X0230396Y0272243D03*
D96*
X0230475Y0272085D03*
X0230475Y0271928D03*
X0216617Y0272243D03*
X0257117Y0272243D03*
X0269550Y0310557D03*
X0230050Y0310557D03*
X0216192Y0310715D03*
X0216192Y0310872D03*
X0150077Y0312290D03*
X0136534Y0312290D03*
X0136589Y0270510D03*
X0150133Y0270510D03*
D97*
X0263573Y0269250D03*
X0263573Y0275550D03*
X0263093Y0307250D03*
X0263093Y0313550D03*
D98*
X0263093Y0313392D03*
X0263093Y0307408D03*
X0223121Y0307250D03*
X0223121Y0313550D03*
X0223546Y0275550D03*
X0223546Y0269250D03*
X0263573Y0269408D03*
X0263573Y0275392D03*
D99*
X0269085Y0274290D03*
X0269085Y0274132D03*
X0269243Y0273975D03*
X0269243Y0273817D03*
X0257589Y0271928D03*
X0217089Y0271928D03*
X0229577Y0310872D03*
X0257424Y0308983D03*
X0257424Y0308825D03*
X0257581Y0308668D03*
X0257581Y0308510D03*
X0269077Y0310872D03*
D100*
X0268920Y0311030D03*
X0257266Y0311030D03*
X0257266Y0311187D03*
X0257266Y0310872D03*
X0257266Y0310715D03*
X0257266Y0310557D03*
X0257266Y0310400D03*
X0257266Y0310243D03*
X0257266Y0310085D03*
X0257266Y0309928D03*
X0257266Y0309770D03*
X0257266Y0309613D03*
X0257747Y0271770D03*
X0269400Y0271770D03*
X0269400Y0271613D03*
X0269400Y0271928D03*
X0269400Y0272085D03*
X0269400Y0272243D03*
X0269400Y0272400D03*
X0269400Y0272557D03*
X0269400Y0272715D03*
X0269400Y0272872D03*
X0269400Y0273030D03*
X0269400Y0273187D03*
D101*
X0264361Y0273030D03*
X0264361Y0271613D03*
X0245459Y0277668D03*
X0232073Y0277825D03*
X0232073Y0279715D03*
X0228766Y0279715D03*
X0228766Y0279872D03*
X0228766Y0277825D03*
X0228609Y0276723D03*
X0225278Y0274132D03*
X0221388Y0308668D03*
X0262306Y0309770D03*
X0262306Y0311187D03*
D102*
X0223121Y0313392D03*
X0223121Y0307408D03*
X0223546Y0275392D03*
X0223546Y0269408D03*
D103*
X0230160Y0273187D03*
X0230003Y0273660D03*
X0229845Y0273975D03*
X0229688Y0274290D03*
X0216979Y0308510D03*
X0216822Y0308825D03*
X0216664Y0309140D03*
X0216507Y0309613D03*
D104*
X0229341Y0311030D03*
X0217325Y0271770D03*
D105*
X0169979Y0291313D03*
X0163286Y0299660D03*
X0150530Y0289660D03*
X0151593Y0287416D03*
X0152184Y0287416D03*
D106*
X0159526Y0291983D03*
X0163227Y0299581D03*
D107*
X0162774Y0299384D03*
X0150924Y0293439D03*
D108*
X0162636Y0299286D03*
D109*
X0162597Y0299187D03*
X0162400Y0298991D03*
X0166180Y0292180D03*
X0170274Y0291510D03*
X0158109Y0292180D03*
X0157046Y0291707D03*
D110*
X0157341Y0294719D03*
X0150924Y0293262D03*
X0162499Y0299089D03*
D111*
X0161908Y0298892D03*
D112*
X0161849Y0298794D03*
X0157400Y0294620D03*
X0151062Y0291117D03*
X0152125Y0287809D03*
X0174408Y0290920D03*
D113*
X0160510Y0291018D03*
X0157676Y0292475D03*
X0161770Y0298695D03*
X0152125Y0287711D03*
D114*
X0153896Y0291313D03*
X0161180Y0298597D03*
X0167597Y0291510D03*
D115*
X0172125Y0291018D03*
X0174644Y0290624D03*
X0175117Y0290624D03*
X0158699Y0298498D03*
X0151022Y0294522D03*
X0152203Y0287514D03*
D116*
X0151652Y0291884D03*
X0153699Y0292869D03*
X0160983Y0298498D03*
D117*
X0160353Y0298400D03*
X0157440Y0294424D03*
X0152085Y0291707D03*
D118*
X0160255Y0298302D03*
X0163365Y0291609D03*
D119*
X0155294Y0291786D03*
X0150924Y0294030D03*
X0150924Y0294227D03*
X0150530Y0290054D03*
X0157341Y0298203D03*
D120*
X0160097Y0298203D03*
X0163404Y0291510D03*
D121*
X0167341Y0293164D03*
X0159467Y0298124D03*
D122*
X0159290Y0298026D03*
D123*
X0156022Y0297928D03*
X0150983Y0294424D03*
D124*
X0159093Y0297928D03*
D125*
X0158660Y0297829D03*
D126*
X0158463Y0297731D03*
X0155550Y0296471D03*
X0166337Y0293361D03*
D127*
X0165707Y0293538D03*
X0158306Y0297632D03*
D128*
X0157735Y0297534D03*
D129*
X0157577Y0297435D03*
D130*
X0157440Y0297337D03*
D131*
X0157282Y0297239D03*
D132*
X0157007Y0297140D03*
X0168660Y0292573D03*
D133*
X0156869Y0297042D03*
D134*
X0156514Y0296943D03*
D135*
X0156219Y0296845D03*
D136*
X0156081Y0296746D03*
X0171042Y0290250D03*
D137*
X0155865Y0296648D03*
D138*
X0155688Y0296550D03*
D139*
X0155294Y0296372D03*
X0157538Y0294128D03*
D140*
X0155117Y0296274D03*
D141*
X0154959Y0296176D03*
D142*
X0154723Y0296077D03*
D143*
X0154625Y0295979D03*
X0155294Y0290152D03*
D144*
X0152420Y0291510D03*
X0154467Y0295880D03*
X0159900Y0289463D03*
X0162932Y0291983D03*
D145*
X0155097Y0289955D03*
X0154231Y0295782D03*
D146*
X0162794Y0295782D03*
D147*
X0154093Y0295683D03*
D148*
X0150983Y0292967D03*
X0159999Y0291510D03*
X0162833Y0295683D03*
D149*
X0153975Y0295585D03*
X0152125Y0291609D03*
D150*
X0158896Y0287317D03*
X0160353Y0291215D03*
X0162873Y0295585D03*
X0166377Y0291018D03*
D151*
X0153798Y0295487D03*
D152*
X0160451Y0291117D03*
X0162892Y0295487D03*
X0166278Y0290920D03*
D153*
X0167558Y0291215D03*
X0163463Y0291412D03*
X0161613Y0292475D03*
X0160825Y0292869D03*
X0154605Y0291018D03*
X0153660Y0295388D03*
X0173581Y0291215D03*
D154*
X0163759Y0291018D03*
X0162892Y0295388D03*
X0159192Y0287514D03*
X0152105Y0288105D03*
X0152105Y0288971D03*
D155*
X0154467Y0291117D03*
X0153601Y0295290D03*
X0160688Y0292967D03*
D156*
X0162991Y0295290D03*
X0165983Y0290526D03*
X0158503Y0289069D03*
X0152085Y0288676D03*
X0152085Y0288400D03*
X0152951Y0294227D03*
D157*
X0153404Y0295191D03*
D158*
X0153404Y0295093D03*
D159*
X0153660Y0292967D03*
X0153739Y0292770D03*
X0158699Y0288676D03*
X0163070Y0295093D03*
D160*
X0158857Y0288400D03*
X0153306Y0295014D03*
D161*
X0156948Y0292967D03*
X0155215Y0289266D03*
X0155215Y0289069D03*
X0163168Y0295014D03*
D162*
X0151081Y0294916D03*
X0151081Y0294719D03*
X0150491Y0289758D03*
D163*
X0155215Y0289168D03*
X0158798Y0288498D03*
X0153247Y0294916D03*
D164*
X0155196Y0289365D03*
X0163188Y0294916D03*
D165*
X0172932Y0290920D03*
X0151081Y0294817D03*
D166*
X0153207Y0294817D03*
X0158759Y0288597D03*
X0158955Y0288203D03*
X0159034Y0288006D03*
D167*
X0151908Y0291786D03*
X0163286Y0294817D03*
D168*
X0157046Y0292869D03*
X0153148Y0294719D03*
X0155196Y0288971D03*
D169*
X0163404Y0294719D03*
D170*
X0158503Y0291786D03*
X0156652Y0291983D03*
X0151022Y0294620D03*
X0150550Y0289857D03*
X0172400Y0290526D03*
D171*
X0153109Y0294620D03*
D172*
X0161022Y0292770D03*
X0163463Y0294620D03*
X0173463Y0291313D03*
D173*
X0157440Y0294522D03*
D174*
X0155117Y0289758D03*
X0163660Y0294522D03*
D175*
X0163719Y0291117D03*
X0158562Y0288872D03*
X0157184Y0292770D03*
X0153010Y0294424D03*
X0152144Y0288597D03*
D176*
X0155097Y0289857D03*
X0163759Y0294424D03*
D177*
X0152951Y0294325D03*
X0151416Y0292081D03*
X0152085Y0288774D03*
X0152085Y0288302D03*
D178*
X0157499Y0294325D03*
X0163916Y0294325D03*
D179*
X0157479Y0294227D03*
D180*
X0164211Y0294227D03*
D181*
X0152873Y0294030D03*
X0151219Y0290920D03*
X0151416Y0290329D03*
D182*
X0157499Y0294030D03*
D183*
X0164487Y0294030D03*
D184*
X0170136Y0291412D03*
X0156711Y0291884D03*
X0150885Y0293931D03*
D185*
X0157518Y0293931D03*
D186*
X0164723Y0293931D03*
D187*
X0164782Y0292376D03*
X0166042Y0291983D03*
X0159231Y0287140D03*
X0150885Y0293833D03*
D188*
X0156357Y0293833D03*
D189*
X0164979Y0293833D03*
D190*
X0150924Y0293735D03*
D191*
X0156455Y0293735D03*
D192*
X0165117Y0293735D03*
D193*
X0150924Y0293636D03*
D194*
X0156554Y0293636D03*
D195*
X0165412Y0293636D03*
X0166003Y0293439D03*
D196*
X0150865Y0293538D03*
D197*
X0156672Y0293538D03*
D198*
X0156810Y0293439D03*
D199*
X0150924Y0293361D03*
X0150924Y0293164D03*
D200*
X0156908Y0293361D03*
D201*
X0157007Y0293262D03*
D202*
X0152617Y0291412D03*
X0166908Y0293262D03*
D203*
X0157144Y0293164D03*
D204*
X0157085Y0291609D03*
X0150983Y0293065D03*
X0174802Y0290821D03*
D205*
X0157203Y0293065D03*
D206*
X0162577Y0292278D03*
X0167656Y0293065D03*
D207*
X0167774Y0292967D03*
X0171987Y0291707D03*
D208*
X0160156Y0291412D03*
X0151022Y0292869D03*
D209*
X0168089Y0292869D03*
D210*
X0168877Y0290920D03*
X0160215Y0291313D03*
X0158837Y0287219D03*
X0151948Y0287613D03*
X0151081Y0292770D03*
D211*
X0168227Y0292770D03*
D212*
X0151022Y0292672D03*
D213*
X0151377Y0290624D03*
X0151377Y0290428D03*
X0157400Y0292672D03*
D214*
X0154231Y0291215D03*
X0161121Y0292672D03*
D215*
X0168325Y0292672D03*
D216*
X0166475Y0291117D03*
X0151121Y0292573D03*
X0150924Y0291313D03*
D217*
X0153955Y0292573D03*
D218*
X0151318Y0292180D03*
X0151318Y0290723D03*
X0152105Y0288872D03*
X0152105Y0288203D03*
X0152105Y0288006D03*
X0159192Y0287416D03*
X0157538Y0292573D03*
D219*
X0155156Y0289660D03*
X0161377Y0292573D03*
X0170038Y0290526D03*
X0172833Y0289463D03*
D220*
X0151160Y0292475D03*
D221*
X0154073Y0292475D03*
X0157971Y0291018D03*
X0158562Y0288971D03*
X0159152Y0287711D03*
X0152144Y0288498D03*
D222*
X0164881Y0292475D03*
X0173818Y0290821D03*
D223*
X0168759Y0292475D03*
D224*
X0151219Y0292376D03*
D225*
X0151377Y0290526D03*
X0154172Y0292376D03*
X0157873Y0291117D03*
X0167597Y0291707D03*
D226*
X0163798Y0290920D03*
X0157774Y0292376D03*
X0157577Y0291313D03*
X0154585Y0292180D03*
D227*
X0161810Y0292376D03*
D228*
X0168857Y0292376D03*
D229*
X0151318Y0292278D03*
X0151121Y0291018D03*
D230*
X0169113Y0292278D03*
D231*
X0162735Y0292180D03*
D232*
X0170707Y0292180D03*
D233*
X0166081Y0292081D03*
X0159861Y0291609D03*
D234*
X0170944Y0292081D03*
D235*
X0151554Y0291983D03*
D236*
X0151790Y0290054D03*
X0154900Y0291983D03*
D237*
X0158266Y0291983D03*
D238*
X0171239Y0291983D03*
D239*
X0155255Y0291884D03*
D240*
X0163109Y0291884D03*
X0171495Y0291884D03*
D241*
X0174841Y0290723D03*
X0156849Y0291786D03*
D242*
X0159684Y0291786D03*
D243*
X0163168Y0291786D03*
D244*
X0167597Y0291786D03*
D245*
X0171731Y0291786D03*
D246*
X0159822Y0291707D03*
D247*
X0163207Y0291707D03*
D248*
X0172125Y0291609D03*
D249*
X0168719Y0291117D03*
X0157341Y0291510D03*
D250*
X0173089Y0291510D03*
D251*
X0167597Y0291412D03*
D252*
X0173345Y0291412D03*
D253*
X0167597Y0291313D03*
X0163621Y0291313D03*
X0155156Y0289463D03*
D254*
X0151022Y0291215D03*
X0166180Y0290821D03*
D255*
X0163601Y0291215D03*
D256*
X0173621Y0291117D03*
D257*
X0171003Y0290624D03*
X0168759Y0291018D03*
D258*
X0157341Y0290920D03*
D259*
X0157440Y0290821D03*
D260*
X0168916Y0290821D03*
D261*
X0157577Y0290723D03*
D262*
X0166101Y0290723D03*
D263*
X0168975Y0290723D03*
D264*
X0157873Y0290624D03*
D265*
X0169152Y0290624D03*
D266*
X0158030Y0290526D03*
D267*
X0152912Y0287613D03*
X0173227Y0290526D03*
D268*
X0158207Y0290428D03*
D269*
X0165845Y0290428D03*
D270*
X0170373Y0290428D03*
D271*
X0160196Y0290329D03*
D272*
X0171101Y0290329D03*
D273*
X0158463Y0287140D03*
X0150589Y0290250D03*
D274*
X0151849Y0290250D03*
D275*
X0160294Y0290250D03*
D276*
X0151849Y0290152D03*
D277*
X0166436Y0290152D03*
D278*
X0155196Y0290054D03*
D279*
X0166475Y0290054D03*
D280*
X0159231Y0287042D03*
X0151554Y0287514D03*
X0150491Y0289955D03*
D281*
X0166534Y0289955D03*
D282*
X0151751Y0289857D03*
X0151751Y0289660D03*
X0151751Y0289463D03*
D283*
X0166436Y0289857D03*
D284*
X0166377Y0289758D03*
D285*
X0166337Y0289660D03*
D286*
X0155156Y0289561D03*
D287*
X0166219Y0289561D03*
D288*
X0151711Y0289365D03*
D289*
X0159133Y0289365D03*
D290*
X0151948Y0289266D03*
D291*
X0158896Y0289266D03*
D292*
X0152046Y0289069D03*
D293*
X0158896Y0288302D03*
D294*
X0158995Y0288105D03*
D295*
X0159093Y0287809D03*
D296*
X0159192Y0287613D03*
D297*
X0160176Y0287317D03*
D298*
X0208833Y0286884D03*
M02*
