G75*
%MOIN*%
%OFA0B0*%
%FSLAX25Y25*%
%IPPOS*%
%LPD*%
%AMOC8*
5,1,8,0,0,1.08239X$1,22.5*
%
%ADD10R,0.04331X0.03937*%
%ADD11C,0.01181*%
%ADD12R,0.03937X0.04331*%
%ADD13R,0.02480X0.03268*%
%ADD14R,0.03268X0.02480*%
%ADD15R,0.03150X0.03543*%
%ADD16R,0.03937X0.01378*%
D10*
X0199987Y0276400D03*
X0206680Y0276400D03*
X0206680Y0283900D03*
X0199987Y0283900D03*
X0199987Y0298900D03*
X0206680Y0298900D03*
D11*
X0208164Y0270278D02*
X0208164Y0267522D01*
X0205408Y0267522D01*
X0205408Y0270278D01*
X0208164Y0270278D01*
X0208164Y0268644D02*
X0205408Y0268644D01*
X0205408Y0269766D02*
X0208164Y0269766D01*
X0201259Y0270278D02*
X0201259Y0267522D01*
X0198503Y0267522D01*
X0198503Y0270278D01*
X0201259Y0270278D01*
X0201259Y0268644D02*
X0198503Y0268644D01*
X0198503Y0269766D02*
X0201259Y0269766D01*
D12*
X0193333Y0293054D03*
X0193333Y0299746D03*
X0215833Y0299746D03*
X0215833Y0293054D03*
X0223333Y0293054D03*
X0223333Y0299746D03*
X0163333Y0254746D03*
X0163333Y0248054D03*
D13*
X0158806Y0269400D03*
X0167861Y0269400D03*
D14*
X0203333Y0246872D03*
X0203333Y0255928D03*
X0243333Y0255928D03*
X0243333Y0246872D03*
D15*
X0167073Y0277463D03*
X0159593Y0277463D03*
X0163333Y0285731D03*
D16*
X0199003Y0289038D03*
X0199003Y0291400D03*
X0199003Y0293762D03*
X0207664Y0293762D03*
X0207664Y0291400D03*
X0207664Y0289038D03*
M02*
