G75*
%MOIN*%
%OFA0B0*%
%FSLAX25Y25*%
%IPPOS*%
%LPD*%
%AMOC8*
5,1,8,0,0,1.08239X$1,22.5*
%
%ADD10C,0.00800*%
%ADD11C,0.00000*%
D10*
X0128333Y0241400D02*
X0128333Y0341400D01*
X0278333Y0341400D01*
X0278333Y0241400D01*
X0128333Y0241400D01*
D11*
X0131833Y0291400D02*
X0131835Y0291561D01*
X0131841Y0291721D01*
X0131851Y0291882D01*
X0131865Y0292042D01*
X0131883Y0292202D01*
X0131904Y0292361D01*
X0131930Y0292520D01*
X0131960Y0292678D01*
X0131993Y0292835D01*
X0132031Y0292992D01*
X0132072Y0293147D01*
X0132117Y0293301D01*
X0132166Y0293454D01*
X0132219Y0293606D01*
X0132275Y0293757D01*
X0132336Y0293906D01*
X0132399Y0294054D01*
X0132467Y0294200D01*
X0132538Y0294344D01*
X0132612Y0294486D01*
X0132690Y0294627D01*
X0132772Y0294765D01*
X0132857Y0294902D01*
X0132945Y0295036D01*
X0133037Y0295168D01*
X0133132Y0295298D01*
X0133230Y0295426D01*
X0133331Y0295551D01*
X0133435Y0295673D01*
X0133542Y0295793D01*
X0133652Y0295910D01*
X0133765Y0296025D01*
X0133881Y0296136D01*
X0134000Y0296245D01*
X0134121Y0296350D01*
X0134245Y0296453D01*
X0134371Y0296553D01*
X0134499Y0296649D01*
X0134630Y0296742D01*
X0134764Y0296832D01*
X0134899Y0296919D01*
X0135037Y0297002D01*
X0135176Y0297082D01*
X0135318Y0297158D01*
X0135461Y0297231D01*
X0135606Y0297300D01*
X0135753Y0297366D01*
X0135901Y0297428D01*
X0136051Y0297486D01*
X0136202Y0297541D01*
X0136355Y0297592D01*
X0136509Y0297639D01*
X0136664Y0297682D01*
X0136820Y0297721D01*
X0136976Y0297757D01*
X0137134Y0297788D01*
X0137292Y0297816D01*
X0137451Y0297840D01*
X0137611Y0297860D01*
X0137771Y0297876D01*
X0137931Y0297888D01*
X0138092Y0297896D01*
X0138253Y0297900D01*
X0138413Y0297900D01*
X0138574Y0297896D01*
X0138735Y0297888D01*
X0138895Y0297876D01*
X0139055Y0297860D01*
X0139215Y0297840D01*
X0139374Y0297816D01*
X0139532Y0297788D01*
X0139690Y0297757D01*
X0139846Y0297721D01*
X0140002Y0297682D01*
X0140157Y0297639D01*
X0140311Y0297592D01*
X0140464Y0297541D01*
X0140615Y0297486D01*
X0140765Y0297428D01*
X0140913Y0297366D01*
X0141060Y0297300D01*
X0141205Y0297231D01*
X0141348Y0297158D01*
X0141490Y0297082D01*
X0141629Y0297002D01*
X0141767Y0296919D01*
X0141902Y0296832D01*
X0142036Y0296742D01*
X0142167Y0296649D01*
X0142295Y0296553D01*
X0142421Y0296453D01*
X0142545Y0296350D01*
X0142666Y0296245D01*
X0142785Y0296136D01*
X0142901Y0296025D01*
X0143014Y0295910D01*
X0143124Y0295793D01*
X0143231Y0295673D01*
X0143335Y0295551D01*
X0143436Y0295426D01*
X0143534Y0295298D01*
X0143629Y0295168D01*
X0143721Y0295036D01*
X0143809Y0294902D01*
X0143894Y0294765D01*
X0143976Y0294627D01*
X0144054Y0294486D01*
X0144128Y0294344D01*
X0144199Y0294200D01*
X0144267Y0294054D01*
X0144330Y0293906D01*
X0144391Y0293757D01*
X0144447Y0293606D01*
X0144500Y0293454D01*
X0144549Y0293301D01*
X0144594Y0293147D01*
X0144635Y0292992D01*
X0144673Y0292835D01*
X0144706Y0292678D01*
X0144736Y0292520D01*
X0144762Y0292361D01*
X0144783Y0292202D01*
X0144801Y0292042D01*
X0144815Y0291882D01*
X0144825Y0291721D01*
X0144831Y0291561D01*
X0144833Y0291400D01*
X0144831Y0291239D01*
X0144825Y0291079D01*
X0144815Y0290918D01*
X0144801Y0290758D01*
X0144783Y0290598D01*
X0144762Y0290439D01*
X0144736Y0290280D01*
X0144706Y0290122D01*
X0144673Y0289965D01*
X0144635Y0289808D01*
X0144594Y0289653D01*
X0144549Y0289499D01*
X0144500Y0289346D01*
X0144447Y0289194D01*
X0144391Y0289043D01*
X0144330Y0288894D01*
X0144267Y0288746D01*
X0144199Y0288600D01*
X0144128Y0288456D01*
X0144054Y0288314D01*
X0143976Y0288173D01*
X0143894Y0288035D01*
X0143809Y0287898D01*
X0143721Y0287764D01*
X0143629Y0287632D01*
X0143534Y0287502D01*
X0143436Y0287374D01*
X0143335Y0287249D01*
X0143231Y0287127D01*
X0143124Y0287007D01*
X0143014Y0286890D01*
X0142901Y0286775D01*
X0142785Y0286664D01*
X0142666Y0286555D01*
X0142545Y0286450D01*
X0142421Y0286347D01*
X0142295Y0286247D01*
X0142167Y0286151D01*
X0142036Y0286058D01*
X0141902Y0285968D01*
X0141767Y0285881D01*
X0141629Y0285798D01*
X0141490Y0285718D01*
X0141348Y0285642D01*
X0141205Y0285569D01*
X0141060Y0285500D01*
X0140913Y0285434D01*
X0140765Y0285372D01*
X0140615Y0285314D01*
X0140464Y0285259D01*
X0140311Y0285208D01*
X0140157Y0285161D01*
X0140002Y0285118D01*
X0139846Y0285079D01*
X0139690Y0285043D01*
X0139532Y0285012D01*
X0139374Y0284984D01*
X0139215Y0284960D01*
X0139055Y0284940D01*
X0138895Y0284924D01*
X0138735Y0284912D01*
X0138574Y0284904D01*
X0138413Y0284900D01*
X0138253Y0284900D01*
X0138092Y0284904D01*
X0137931Y0284912D01*
X0137771Y0284924D01*
X0137611Y0284940D01*
X0137451Y0284960D01*
X0137292Y0284984D01*
X0137134Y0285012D01*
X0136976Y0285043D01*
X0136820Y0285079D01*
X0136664Y0285118D01*
X0136509Y0285161D01*
X0136355Y0285208D01*
X0136202Y0285259D01*
X0136051Y0285314D01*
X0135901Y0285372D01*
X0135753Y0285434D01*
X0135606Y0285500D01*
X0135461Y0285569D01*
X0135318Y0285642D01*
X0135176Y0285718D01*
X0135037Y0285798D01*
X0134899Y0285881D01*
X0134764Y0285968D01*
X0134630Y0286058D01*
X0134499Y0286151D01*
X0134371Y0286247D01*
X0134245Y0286347D01*
X0134121Y0286450D01*
X0134000Y0286555D01*
X0133881Y0286664D01*
X0133765Y0286775D01*
X0133652Y0286890D01*
X0133542Y0287007D01*
X0133435Y0287127D01*
X0133331Y0287249D01*
X0133230Y0287374D01*
X0133132Y0287502D01*
X0133037Y0287632D01*
X0132945Y0287764D01*
X0132857Y0287898D01*
X0132772Y0288035D01*
X0132690Y0288173D01*
X0132612Y0288314D01*
X0132538Y0288456D01*
X0132467Y0288600D01*
X0132399Y0288746D01*
X0132336Y0288894D01*
X0132275Y0289043D01*
X0132219Y0289194D01*
X0132166Y0289346D01*
X0132117Y0289499D01*
X0132072Y0289653D01*
X0132031Y0289808D01*
X0131993Y0289965D01*
X0131960Y0290122D01*
X0131930Y0290280D01*
X0131904Y0290439D01*
X0131883Y0290598D01*
X0131865Y0290758D01*
X0131851Y0290918D01*
X0131841Y0291079D01*
X0131835Y0291239D01*
X0131833Y0291400D01*
X0261833Y0291400D02*
X0261835Y0291561D01*
X0261841Y0291721D01*
X0261851Y0291882D01*
X0261865Y0292042D01*
X0261883Y0292202D01*
X0261904Y0292361D01*
X0261930Y0292520D01*
X0261960Y0292678D01*
X0261993Y0292835D01*
X0262031Y0292992D01*
X0262072Y0293147D01*
X0262117Y0293301D01*
X0262166Y0293454D01*
X0262219Y0293606D01*
X0262275Y0293757D01*
X0262336Y0293906D01*
X0262399Y0294054D01*
X0262467Y0294200D01*
X0262538Y0294344D01*
X0262612Y0294486D01*
X0262690Y0294627D01*
X0262772Y0294765D01*
X0262857Y0294902D01*
X0262945Y0295036D01*
X0263037Y0295168D01*
X0263132Y0295298D01*
X0263230Y0295426D01*
X0263331Y0295551D01*
X0263435Y0295673D01*
X0263542Y0295793D01*
X0263652Y0295910D01*
X0263765Y0296025D01*
X0263881Y0296136D01*
X0264000Y0296245D01*
X0264121Y0296350D01*
X0264245Y0296453D01*
X0264371Y0296553D01*
X0264499Y0296649D01*
X0264630Y0296742D01*
X0264764Y0296832D01*
X0264899Y0296919D01*
X0265037Y0297002D01*
X0265176Y0297082D01*
X0265318Y0297158D01*
X0265461Y0297231D01*
X0265606Y0297300D01*
X0265753Y0297366D01*
X0265901Y0297428D01*
X0266051Y0297486D01*
X0266202Y0297541D01*
X0266355Y0297592D01*
X0266509Y0297639D01*
X0266664Y0297682D01*
X0266820Y0297721D01*
X0266976Y0297757D01*
X0267134Y0297788D01*
X0267292Y0297816D01*
X0267451Y0297840D01*
X0267611Y0297860D01*
X0267771Y0297876D01*
X0267931Y0297888D01*
X0268092Y0297896D01*
X0268253Y0297900D01*
X0268413Y0297900D01*
X0268574Y0297896D01*
X0268735Y0297888D01*
X0268895Y0297876D01*
X0269055Y0297860D01*
X0269215Y0297840D01*
X0269374Y0297816D01*
X0269532Y0297788D01*
X0269690Y0297757D01*
X0269846Y0297721D01*
X0270002Y0297682D01*
X0270157Y0297639D01*
X0270311Y0297592D01*
X0270464Y0297541D01*
X0270615Y0297486D01*
X0270765Y0297428D01*
X0270913Y0297366D01*
X0271060Y0297300D01*
X0271205Y0297231D01*
X0271348Y0297158D01*
X0271490Y0297082D01*
X0271629Y0297002D01*
X0271767Y0296919D01*
X0271902Y0296832D01*
X0272036Y0296742D01*
X0272167Y0296649D01*
X0272295Y0296553D01*
X0272421Y0296453D01*
X0272545Y0296350D01*
X0272666Y0296245D01*
X0272785Y0296136D01*
X0272901Y0296025D01*
X0273014Y0295910D01*
X0273124Y0295793D01*
X0273231Y0295673D01*
X0273335Y0295551D01*
X0273436Y0295426D01*
X0273534Y0295298D01*
X0273629Y0295168D01*
X0273721Y0295036D01*
X0273809Y0294902D01*
X0273894Y0294765D01*
X0273976Y0294627D01*
X0274054Y0294486D01*
X0274128Y0294344D01*
X0274199Y0294200D01*
X0274267Y0294054D01*
X0274330Y0293906D01*
X0274391Y0293757D01*
X0274447Y0293606D01*
X0274500Y0293454D01*
X0274549Y0293301D01*
X0274594Y0293147D01*
X0274635Y0292992D01*
X0274673Y0292835D01*
X0274706Y0292678D01*
X0274736Y0292520D01*
X0274762Y0292361D01*
X0274783Y0292202D01*
X0274801Y0292042D01*
X0274815Y0291882D01*
X0274825Y0291721D01*
X0274831Y0291561D01*
X0274833Y0291400D01*
X0274831Y0291239D01*
X0274825Y0291079D01*
X0274815Y0290918D01*
X0274801Y0290758D01*
X0274783Y0290598D01*
X0274762Y0290439D01*
X0274736Y0290280D01*
X0274706Y0290122D01*
X0274673Y0289965D01*
X0274635Y0289808D01*
X0274594Y0289653D01*
X0274549Y0289499D01*
X0274500Y0289346D01*
X0274447Y0289194D01*
X0274391Y0289043D01*
X0274330Y0288894D01*
X0274267Y0288746D01*
X0274199Y0288600D01*
X0274128Y0288456D01*
X0274054Y0288314D01*
X0273976Y0288173D01*
X0273894Y0288035D01*
X0273809Y0287898D01*
X0273721Y0287764D01*
X0273629Y0287632D01*
X0273534Y0287502D01*
X0273436Y0287374D01*
X0273335Y0287249D01*
X0273231Y0287127D01*
X0273124Y0287007D01*
X0273014Y0286890D01*
X0272901Y0286775D01*
X0272785Y0286664D01*
X0272666Y0286555D01*
X0272545Y0286450D01*
X0272421Y0286347D01*
X0272295Y0286247D01*
X0272167Y0286151D01*
X0272036Y0286058D01*
X0271902Y0285968D01*
X0271767Y0285881D01*
X0271629Y0285798D01*
X0271490Y0285718D01*
X0271348Y0285642D01*
X0271205Y0285569D01*
X0271060Y0285500D01*
X0270913Y0285434D01*
X0270765Y0285372D01*
X0270615Y0285314D01*
X0270464Y0285259D01*
X0270311Y0285208D01*
X0270157Y0285161D01*
X0270002Y0285118D01*
X0269846Y0285079D01*
X0269690Y0285043D01*
X0269532Y0285012D01*
X0269374Y0284984D01*
X0269215Y0284960D01*
X0269055Y0284940D01*
X0268895Y0284924D01*
X0268735Y0284912D01*
X0268574Y0284904D01*
X0268413Y0284900D01*
X0268253Y0284900D01*
X0268092Y0284904D01*
X0267931Y0284912D01*
X0267771Y0284924D01*
X0267611Y0284940D01*
X0267451Y0284960D01*
X0267292Y0284984D01*
X0267134Y0285012D01*
X0266976Y0285043D01*
X0266820Y0285079D01*
X0266664Y0285118D01*
X0266509Y0285161D01*
X0266355Y0285208D01*
X0266202Y0285259D01*
X0266051Y0285314D01*
X0265901Y0285372D01*
X0265753Y0285434D01*
X0265606Y0285500D01*
X0265461Y0285569D01*
X0265318Y0285642D01*
X0265176Y0285718D01*
X0265037Y0285798D01*
X0264899Y0285881D01*
X0264764Y0285968D01*
X0264630Y0286058D01*
X0264499Y0286151D01*
X0264371Y0286247D01*
X0264245Y0286347D01*
X0264121Y0286450D01*
X0264000Y0286555D01*
X0263881Y0286664D01*
X0263765Y0286775D01*
X0263652Y0286890D01*
X0263542Y0287007D01*
X0263435Y0287127D01*
X0263331Y0287249D01*
X0263230Y0287374D01*
X0263132Y0287502D01*
X0263037Y0287632D01*
X0262945Y0287764D01*
X0262857Y0287898D01*
X0262772Y0288035D01*
X0262690Y0288173D01*
X0262612Y0288314D01*
X0262538Y0288456D01*
X0262467Y0288600D01*
X0262399Y0288746D01*
X0262336Y0288894D01*
X0262275Y0289043D01*
X0262219Y0289194D01*
X0262166Y0289346D01*
X0262117Y0289499D01*
X0262072Y0289653D01*
X0262031Y0289808D01*
X0261993Y0289965D01*
X0261960Y0290122D01*
X0261930Y0290280D01*
X0261904Y0290439D01*
X0261883Y0290598D01*
X0261865Y0290758D01*
X0261851Y0290918D01*
X0261841Y0291079D01*
X0261835Y0291239D01*
X0261833Y0291400D01*
M02*
