G75*
%MOIN*%
%OFA0B0*%
%FSLAX25Y25*%
%IPPOS*%
%LPD*%
%AMOC8*
5,1,8,0,0,1.08239X$1,22.5*
%
%ADD10C,0.13800*%
%ADD11C,0.03300*%
%ADD12C,0.20800*%
%ADD13C,0.01000*%
D10*
X0138333Y0291400D03*
X0268333Y0291400D03*
D11*
X0273333Y0313900D03*
X0130833Y0266400D03*
D12*
X0143333Y0255400D03*
X0183333Y0255400D03*
X0223333Y0255400D03*
X0263333Y0255400D03*
X0263333Y0327400D03*
X0223333Y0327400D03*
X0183333Y0327400D03*
X0143333Y0327400D03*
D13*
X0131033Y0256200D02*
X0131033Y0241200D01*
X0155833Y0241200D01*
X0155833Y0256600D01*
X0155628Y0258273D01*
X0155186Y0259900D01*
X0154518Y0261448D01*
X0153636Y0262884D01*
X0152558Y0264181D01*
X0151307Y0265311D01*
X0149908Y0266251D01*
X0148389Y0266983D01*
X0146782Y0267491D01*
X0145119Y0267765D01*
X0143433Y0267800D01*
X0141833Y0267846D01*
X0140243Y0267666D01*
X0138694Y0267262D01*
X0137218Y0266643D01*
X0135845Y0265821D01*
X0134601Y0264813D01*
X0133513Y0263640D01*
X0132602Y0262324D01*
X0131886Y0260893D01*
X0131380Y0259374D01*
X0131094Y0257799D01*
X0131033Y0256200D01*
X0131040Y0256378D02*
X0155833Y0256378D01*
X0155833Y0255379D02*
X0131033Y0255379D01*
X0131033Y0254381D02*
X0155833Y0254381D01*
X0155833Y0253382D02*
X0131033Y0253382D01*
X0131033Y0252384D02*
X0155833Y0252384D01*
X0155833Y0251385D02*
X0131033Y0251385D01*
X0131033Y0250387D02*
X0155833Y0250387D01*
X0155833Y0249388D02*
X0131033Y0249388D01*
X0131033Y0248390D02*
X0155833Y0248390D01*
X0155833Y0247391D02*
X0131033Y0247391D01*
X0131033Y0246393D02*
X0155833Y0246393D01*
X0155833Y0245394D02*
X0131033Y0245394D01*
X0131033Y0244396D02*
X0155833Y0244396D01*
X0155833Y0243397D02*
X0131033Y0243397D01*
X0131033Y0242399D02*
X0155833Y0242399D01*
X0155833Y0241400D02*
X0131033Y0241400D01*
X0131078Y0257376D02*
X0155738Y0257376D01*
X0155600Y0258375D02*
X0131198Y0258375D01*
X0131380Y0259373D02*
X0155329Y0259373D01*
X0154983Y0260372D02*
X0131712Y0260372D01*
X0132125Y0261370D02*
X0154551Y0261370D01*
X0153952Y0262369D02*
X0132633Y0262369D01*
X0133324Y0263367D02*
X0153234Y0263367D01*
X0152353Y0264366D02*
X0134186Y0264366D01*
X0135281Y0265364D02*
X0151228Y0265364D01*
X0149677Y0266363D02*
X0136750Y0266363D01*
X0139076Y0267361D02*
X0147193Y0267361D01*
X0171380Y0259374D02*
X0171094Y0257799D01*
X0171033Y0256200D01*
X0171033Y0241200D01*
X0195833Y0241200D01*
X0195833Y0256600D01*
X0195628Y0258273D01*
X0195186Y0259900D01*
X0194518Y0261448D01*
X0193636Y0262884D01*
X0192558Y0264181D01*
X0191307Y0265311D01*
X0189908Y0266251D01*
X0188389Y0266983D01*
X0186782Y0267491D01*
X0185119Y0267765D01*
X0183433Y0267800D01*
X0181833Y0267846D01*
X0180243Y0267666D01*
X0178694Y0267262D01*
X0177218Y0266643D01*
X0175845Y0265821D01*
X0174601Y0264813D01*
X0173513Y0263640D01*
X0172602Y0262324D01*
X0171886Y0260893D01*
X0171380Y0259374D01*
X0171380Y0259373D02*
X0195329Y0259373D01*
X0195600Y0258375D02*
X0171198Y0258375D01*
X0171078Y0257376D02*
X0195738Y0257376D01*
X0195833Y0256378D02*
X0171040Y0256378D01*
X0171033Y0255379D02*
X0195833Y0255379D01*
X0195833Y0254381D02*
X0171033Y0254381D01*
X0171033Y0253382D02*
X0195833Y0253382D01*
X0195833Y0252384D02*
X0171033Y0252384D01*
X0171033Y0251385D02*
X0195833Y0251385D01*
X0195833Y0250387D02*
X0171033Y0250387D01*
X0171033Y0249388D02*
X0195833Y0249388D01*
X0195833Y0248390D02*
X0171033Y0248390D01*
X0171033Y0247391D02*
X0195833Y0247391D01*
X0195833Y0246393D02*
X0171033Y0246393D01*
X0171033Y0245394D02*
X0195833Y0245394D01*
X0195833Y0244396D02*
X0171033Y0244396D01*
X0171033Y0243397D02*
X0195833Y0243397D01*
X0195833Y0242399D02*
X0171033Y0242399D01*
X0171033Y0241400D02*
X0195833Y0241400D01*
X0211033Y0241400D02*
X0235833Y0241400D01*
X0235833Y0241200D02*
X0235833Y0256600D01*
X0235628Y0258273D01*
X0235186Y0259900D01*
X0234518Y0261448D01*
X0233636Y0262884D01*
X0232558Y0264181D01*
X0231307Y0265311D01*
X0229908Y0266251D01*
X0228389Y0266983D01*
X0226782Y0267491D01*
X0225119Y0267765D01*
X0223433Y0267800D01*
X0221833Y0267846D01*
X0220243Y0267666D01*
X0218694Y0267262D01*
X0217218Y0266643D01*
X0215845Y0265821D01*
X0214601Y0264813D01*
X0213513Y0263640D01*
X0212602Y0262324D01*
X0211886Y0260893D01*
X0211380Y0259374D01*
X0211094Y0257799D01*
X0211033Y0256200D01*
X0211033Y0241200D01*
X0235833Y0241200D01*
X0235833Y0242399D02*
X0211033Y0242399D01*
X0211033Y0243397D02*
X0235833Y0243397D01*
X0235833Y0244396D02*
X0211033Y0244396D01*
X0211033Y0245394D02*
X0235833Y0245394D01*
X0235833Y0246393D02*
X0211033Y0246393D01*
X0211033Y0247391D02*
X0235833Y0247391D01*
X0235833Y0248390D02*
X0211033Y0248390D01*
X0211033Y0249388D02*
X0235833Y0249388D01*
X0235833Y0250387D02*
X0211033Y0250387D01*
X0211033Y0251385D02*
X0235833Y0251385D01*
X0235833Y0252384D02*
X0211033Y0252384D01*
X0211033Y0253382D02*
X0235833Y0253382D01*
X0235833Y0254381D02*
X0211033Y0254381D01*
X0211033Y0255379D02*
X0235833Y0255379D01*
X0235833Y0256378D02*
X0211040Y0256378D01*
X0211078Y0257376D02*
X0235738Y0257376D01*
X0235600Y0258375D02*
X0211198Y0258375D01*
X0211380Y0259373D02*
X0235329Y0259373D01*
X0234983Y0260372D02*
X0211712Y0260372D01*
X0212125Y0261370D02*
X0234551Y0261370D01*
X0233952Y0262369D02*
X0212633Y0262369D01*
X0213324Y0263367D02*
X0233234Y0263367D01*
X0232353Y0264366D02*
X0214186Y0264366D01*
X0215281Y0265364D02*
X0231228Y0265364D01*
X0229677Y0266363D02*
X0216750Y0266363D01*
X0219076Y0267361D02*
X0227193Y0267361D01*
X0251380Y0259374D02*
X0251094Y0257799D01*
X0251033Y0256200D01*
X0251033Y0241200D01*
X0275833Y0241200D01*
X0275833Y0256600D01*
X0275628Y0258273D01*
X0275186Y0259900D01*
X0274518Y0261448D01*
X0273636Y0262884D01*
X0272558Y0264181D01*
X0271307Y0265311D01*
X0269908Y0266251D01*
X0268389Y0266983D01*
X0266782Y0267491D01*
X0265119Y0267765D01*
X0263433Y0267800D01*
X0261833Y0267846D01*
X0260243Y0267666D01*
X0258694Y0267262D01*
X0257218Y0266643D01*
X0255845Y0265821D01*
X0254601Y0264813D01*
X0253513Y0263640D01*
X0252602Y0262324D01*
X0251886Y0260893D01*
X0251380Y0259374D01*
X0251380Y0259373D02*
X0275329Y0259373D01*
X0275600Y0258375D02*
X0251198Y0258375D01*
X0251078Y0257376D02*
X0275738Y0257376D01*
X0275833Y0256378D02*
X0251040Y0256378D01*
X0251033Y0255379D02*
X0275833Y0255379D01*
X0275833Y0254381D02*
X0251033Y0254381D01*
X0251033Y0253382D02*
X0275833Y0253382D01*
X0275833Y0252384D02*
X0251033Y0252384D01*
X0251033Y0251385D02*
X0275833Y0251385D01*
X0275833Y0250387D02*
X0251033Y0250387D01*
X0251033Y0249388D02*
X0275833Y0249388D01*
X0275833Y0248390D02*
X0251033Y0248390D01*
X0251033Y0247391D02*
X0275833Y0247391D01*
X0275833Y0246393D02*
X0251033Y0246393D01*
X0251033Y0245394D02*
X0275833Y0245394D01*
X0275833Y0244396D02*
X0251033Y0244396D01*
X0251033Y0243397D02*
X0275833Y0243397D01*
X0275833Y0242399D02*
X0251033Y0242399D01*
X0251033Y0241400D02*
X0275833Y0241400D01*
X0274983Y0260372D02*
X0251712Y0260372D01*
X0252125Y0261370D02*
X0274551Y0261370D01*
X0273952Y0262369D02*
X0252633Y0262369D01*
X0253324Y0263367D02*
X0273234Y0263367D01*
X0272353Y0264366D02*
X0254186Y0264366D01*
X0255281Y0265364D02*
X0271228Y0265364D01*
X0269677Y0266363D02*
X0256750Y0266363D01*
X0259076Y0267361D02*
X0267193Y0267361D01*
X0264833Y0314954D02*
X0263233Y0315000D01*
X0261548Y0315035D01*
X0259885Y0315309D01*
X0258277Y0315817D01*
X0256759Y0316549D01*
X0255359Y0317489D01*
X0254108Y0318619D01*
X0253031Y0319916D01*
X0252149Y0321352D01*
X0251480Y0322900D01*
X0251039Y0324527D01*
X0250833Y0326200D01*
X0250833Y0341600D01*
X0275633Y0341600D01*
X0275633Y0326600D01*
X0275573Y0325001D01*
X0275287Y0323426D01*
X0274781Y0321907D01*
X0274065Y0320476D01*
X0273153Y0319160D01*
X0272065Y0317987D01*
X0270822Y0316979D01*
X0269448Y0316157D01*
X0267972Y0315538D01*
X0266423Y0315134D01*
X0264833Y0314954D01*
X0267020Y0315290D02*
X0260000Y0315290D01*
X0257299Y0316288D02*
X0269667Y0316288D01*
X0271202Y0317287D02*
X0255661Y0317287D01*
X0254478Y0318285D02*
X0272342Y0318285D01*
X0273239Y0319284D02*
X0253556Y0319284D01*
X0252806Y0320282D02*
X0273931Y0320282D01*
X0274467Y0321281D02*
X0252193Y0321281D01*
X0251748Y0322279D02*
X0274905Y0322279D01*
X0275237Y0323278D02*
X0251378Y0323278D01*
X0251107Y0324276D02*
X0275441Y0324276D01*
X0275583Y0325275D02*
X0250947Y0325275D01*
X0250833Y0326273D02*
X0275621Y0326273D01*
X0275633Y0327272D02*
X0250833Y0327272D01*
X0250833Y0328270D02*
X0275633Y0328270D01*
X0275633Y0329269D02*
X0250833Y0329269D01*
X0250833Y0330268D02*
X0275633Y0330268D01*
X0275633Y0331266D02*
X0250833Y0331266D01*
X0250833Y0332265D02*
X0275633Y0332265D01*
X0275633Y0333263D02*
X0250833Y0333263D01*
X0250833Y0334262D02*
X0275633Y0334262D01*
X0275633Y0335260D02*
X0250833Y0335260D01*
X0250833Y0336259D02*
X0275633Y0336259D01*
X0275633Y0337257D02*
X0250833Y0337257D01*
X0250833Y0338256D02*
X0275633Y0338256D01*
X0275633Y0339254D02*
X0250833Y0339254D01*
X0250833Y0340253D02*
X0275633Y0340253D01*
X0275633Y0341251D02*
X0250833Y0341251D01*
X0235633Y0341251D02*
X0210833Y0341251D01*
X0210833Y0341600D02*
X0210833Y0326200D01*
X0211039Y0324527D01*
X0211480Y0322900D01*
X0212149Y0321352D01*
X0213031Y0319916D01*
X0214108Y0318619D01*
X0215359Y0317489D01*
X0216759Y0316549D01*
X0218277Y0315817D01*
X0219885Y0315309D01*
X0221548Y0315035D01*
X0223233Y0315000D01*
X0224833Y0314954D01*
X0226423Y0315134D01*
X0227972Y0315538D01*
X0229448Y0316157D01*
X0230822Y0316979D01*
X0232065Y0317987D01*
X0233153Y0319160D01*
X0234065Y0320476D01*
X0234781Y0321907D01*
X0235287Y0323426D01*
X0235573Y0325001D01*
X0235633Y0326600D01*
X0235633Y0341600D01*
X0210833Y0341600D01*
X0210833Y0340253D02*
X0235633Y0340253D01*
X0235633Y0339254D02*
X0210833Y0339254D01*
X0210833Y0338256D02*
X0235633Y0338256D01*
X0235633Y0337257D02*
X0210833Y0337257D01*
X0210833Y0336259D02*
X0235633Y0336259D01*
X0235633Y0335260D02*
X0210833Y0335260D01*
X0210833Y0334262D02*
X0235633Y0334262D01*
X0235633Y0333263D02*
X0210833Y0333263D01*
X0210833Y0332265D02*
X0235633Y0332265D01*
X0235633Y0331266D02*
X0210833Y0331266D01*
X0210833Y0330268D02*
X0235633Y0330268D01*
X0235633Y0329269D02*
X0210833Y0329269D01*
X0210833Y0328270D02*
X0235633Y0328270D01*
X0235633Y0327272D02*
X0210833Y0327272D01*
X0210833Y0326273D02*
X0235621Y0326273D01*
X0235583Y0325275D02*
X0210947Y0325275D01*
X0211107Y0324276D02*
X0235441Y0324276D01*
X0235237Y0323278D02*
X0211378Y0323278D01*
X0211748Y0322279D02*
X0234905Y0322279D01*
X0234467Y0321281D02*
X0212193Y0321281D01*
X0212806Y0320282D02*
X0233931Y0320282D01*
X0233239Y0319284D02*
X0213556Y0319284D01*
X0214478Y0318285D02*
X0232342Y0318285D01*
X0231202Y0317287D02*
X0215661Y0317287D01*
X0217299Y0316288D02*
X0229667Y0316288D01*
X0227020Y0315290D02*
X0220000Y0315290D01*
X0195287Y0323426D02*
X0194781Y0321907D01*
X0194065Y0320476D01*
X0193153Y0319160D01*
X0192065Y0317987D01*
X0190822Y0316979D01*
X0189448Y0316157D01*
X0187972Y0315538D01*
X0186423Y0315134D01*
X0184833Y0314954D01*
X0183233Y0315000D01*
X0181548Y0315035D01*
X0179885Y0315309D01*
X0178277Y0315817D01*
X0176759Y0316549D01*
X0175359Y0317489D01*
X0174108Y0318619D01*
X0173031Y0319916D01*
X0172149Y0321352D01*
X0171480Y0322900D01*
X0171039Y0324527D01*
X0170833Y0326200D01*
X0170833Y0341600D01*
X0195633Y0341600D01*
X0195633Y0326600D01*
X0195573Y0325001D01*
X0195287Y0323426D01*
X0195237Y0323278D02*
X0171378Y0323278D01*
X0171107Y0324276D02*
X0195441Y0324276D01*
X0195583Y0325275D02*
X0170947Y0325275D01*
X0170833Y0326273D02*
X0195621Y0326273D01*
X0195633Y0327272D02*
X0170833Y0327272D01*
X0170833Y0328270D02*
X0195633Y0328270D01*
X0195633Y0329269D02*
X0170833Y0329269D01*
X0170833Y0330268D02*
X0195633Y0330268D01*
X0195633Y0331266D02*
X0170833Y0331266D01*
X0170833Y0332265D02*
X0195633Y0332265D01*
X0195633Y0333263D02*
X0170833Y0333263D01*
X0170833Y0334262D02*
X0195633Y0334262D01*
X0195633Y0335260D02*
X0170833Y0335260D01*
X0170833Y0336259D02*
X0195633Y0336259D01*
X0195633Y0337257D02*
X0170833Y0337257D01*
X0170833Y0338256D02*
X0195633Y0338256D01*
X0195633Y0339254D02*
X0170833Y0339254D01*
X0170833Y0340253D02*
X0195633Y0340253D01*
X0195633Y0341251D02*
X0170833Y0341251D01*
X0155633Y0341251D02*
X0130833Y0341251D01*
X0130833Y0341600D02*
X0130833Y0326200D01*
X0131039Y0324527D01*
X0131480Y0322900D01*
X0132149Y0321352D01*
X0133031Y0319916D01*
X0134108Y0318619D01*
X0135359Y0317489D01*
X0136759Y0316549D01*
X0138277Y0315817D01*
X0139885Y0315309D01*
X0141548Y0315035D01*
X0143233Y0315000D01*
X0144833Y0314954D01*
X0146423Y0315134D01*
X0147972Y0315538D01*
X0149448Y0316157D01*
X0150822Y0316979D01*
X0152065Y0317987D01*
X0153153Y0319160D01*
X0154065Y0320476D01*
X0154781Y0321907D01*
X0155287Y0323426D01*
X0155573Y0325001D01*
X0155633Y0326600D01*
X0155633Y0341600D01*
X0130833Y0341600D01*
X0130833Y0340253D02*
X0155633Y0340253D01*
X0155633Y0339254D02*
X0130833Y0339254D01*
X0130833Y0338256D02*
X0155633Y0338256D01*
X0155633Y0337257D02*
X0130833Y0337257D01*
X0130833Y0336259D02*
X0155633Y0336259D01*
X0155633Y0335260D02*
X0130833Y0335260D01*
X0130833Y0334262D02*
X0155633Y0334262D01*
X0155633Y0333263D02*
X0130833Y0333263D01*
X0130833Y0332265D02*
X0155633Y0332265D01*
X0155633Y0331266D02*
X0130833Y0331266D01*
X0130833Y0330268D02*
X0155633Y0330268D01*
X0155633Y0329269D02*
X0130833Y0329269D01*
X0130833Y0328270D02*
X0155633Y0328270D01*
X0155633Y0327272D02*
X0130833Y0327272D01*
X0130833Y0326273D02*
X0155621Y0326273D01*
X0155583Y0325275D02*
X0130947Y0325275D01*
X0131107Y0324276D02*
X0155441Y0324276D01*
X0155237Y0323278D02*
X0131378Y0323278D01*
X0131748Y0322279D02*
X0154905Y0322279D01*
X0154467Y0321281D02*
X0132193Y0321281D01*
X0132806Y0320282D02*
X0153931Y0320282D01*
X0153239Y0319284D02*
X0133556Y0319284D01*
X0134478Y0318285D02*
X0152342Y0318285D01*
X0151202Y0317287D02*
X0135661Y0317287D01*
X0137299Y0316288D02*
X0149667Y0316288D01*
X0147020Y0315290D02*
X0140000Y0315290D01*
X0171748Y0322279D02*
X0194905Y0322279D01*
X0194467Y0321281D02*
X0172193Y0321281D01*
X0172806Y0320282D02*
X0193931Y0320282D01*
X0193239Y0319284D02*
X0173556Y0319284D01*
X0174478Y0318285D02*
X0192342Y0318285D01*
X0191202Y0317287D02*
X0175661Y0317287D01*
X0177299Y0316288D02*
X0189667Y0316288D01*
X0187020Y0315290D02*
X0180000Y0315290D01*
X0179076Y0267361D02*
X0187193Y0267361D01*
X0189677Y0266363D02*
X0176750Y0266363D01*
X0175281Y0265364D02*
X0191228Y0265364D01*
X0192353Y0264366D02*
X0174186Y0264366D01*
X0173324Y0263367D02*
X0193234Y0263367D01*
X0193952Y0262369D02*
X0172633Y0262369D01*
X0172125Y0261370D02*
X0194551Y0261370D01*
X0194983Y0260372D02*
X0171712Y0260372D01*
M02*
