%
M48
M72
T01C0.0150
T02C0.1300
T03C0.1575
%
T01
X19373Y26730
X21173Y27880
X19283Y28540
X18853Y28910
X18673Y28530
X18023Y28330
X17333Y28140
X17973Y28980
X18823Y29630
X20333Y29240
X21133Y30340
X20323Y32630
X24323Y32630
X25333Y29390
X27323Y28130
X24323Y26630
T02
X26833Y29140
X13833Y29140
T03
X14333Y25540
X18333Y25540
X22333Y25540
X26333Y25540
X26333Y32740
X22333Y32740
X18333Y32740
X14333Y32740
M30
